<?xml version="1.0" encoding="utf-8"?>
<!-- Generator: Adobe Illustrator 15.1.0, SVG Export Plug-In . SVG Version: 6.00 Build 0)  -->
<!DOCTYPE svg PUBLIC "-//W3C//DTD SVG 1.1//EN" "http://www.w3.org/Graphics/SVG/1.1/DTD/svg11.dtd">
<svg version="1.1" xmlns="http://www.w3.org/2000/svg" xmlns:xlink="http://www.w3.org/1999/xlink" x="0px" y="0px" width="612px"
	 height="792px" viewBox="0 0 612 792" enable-background="new 0 0 612 792" xml:space="preserve">
<g id="Layer_4">
	<circle fill="#FF4717" cx="316.573" cy="303.171" r="226"/>
	<circle fill="#1E1D1D" cx="316.573" cy="303.171" r="221.333"/>
	<circle fill="#FFFFFF" cx="316.573" cy="303.171" r="175.333"/>
</g>
<g id="Layer_2">
	<g>
		<g>
			<g>
				<path fill="#FFFFFF" d="M351.938,325.809c17.678,0,32.004,17.286,32.004,38.627c0,21.338-14.326,38.623-32.004,38.623
					c-17.676,0-31.989-17.285-31.989-38.623C319.948,343.095,334.262,325.809,351.938,325.809z"/>
			</g>
			<g>
				<path fill="#1E1D1D" d="M351.938,407.048c-19.839,0-35.979-19.113-35.979-42.612c0-23.502,16.14-42.617,35.979-42.617
					c19.848,0,35.992,19.115,35.992,42.617C387.93,387.935,371.785,407.048,351.938,407.048L351.938,407.048z M351.938,329.798
					c-15.44,0-28.001,15.535-28.001,34.638c0,19.098,12.561,34.633,28.001,34.633c15.447,0,28.016-15.535,28.016-34.633
					C379.953,345.333,367.385,329.798,351.938,329.798L351.938,329.798z"/>
			</g>
		</g>
		<g>
			<g>
				<g>
					<g>
						<path fill="#FFFFFF" d="M301.582,443.27c0.46-1.437,0.778-2.912,0.778-4.461c0-9.871-9.876-17.874-22.055-17.874
							c-12.178,0-22.047,8.003-22.047,17.874c0,1.549,0.32,3.024,0.777,4.461H301.582z"/>
					</g>
				</g>
			</g>
			<g>
				<g>
					<g>
						<path fill="#1E1D1D" d="M301.582,447.257h-42.546c-1.74,0-3.276-1.125-3.804-2.773c-0.656-2.073-0.961-3.878-0.961-5.675
							c0-12.062,11.679-21.866,26.035-21.866c14.36,0,26.043,9.805,26.043,21.866c0,1.805-0.308,3.611-0.967,5.681
							C304.852,446.138,303.316,447.257,301.582,447.257L301.582,447.257z M262.266,439.281h36.088
							c0.01-0.161,0.018-0.319,0.018-0.473c0-7.66-8.104-13.887-18.066-13.887c-9.957,0-18.058,6.227-18.058,13.887
							C262.248,438.962,262.255,439.12,262.266,439.281L262.266,439.281z"/>
					</g>
				</g>
			</g>
		</g>
		<g>
			<g>
				<g>
					<g>
						<path fill="#FFFFFF" d="M378.803,443.27c0.465-1.437,0.783-2.912,0.783-4.461c0-9.871-9.877-17.874-22.059-17.874
							c-12.176,0-22.042,8.003-22.042,17.874c0,1.549,0.318,3.024,0.778,4.461H378.803z"/>
					</g>
				</g>
			</g>
			<g>
				<g>
					<g>
						<path fill="#1E1D1D" d="M378.803,447.257h-42.539c-1.736,0-3.271-1.119-3.801-2.768c-0.658-2.069-0.968-3.876-0.968-5.681
							c0-12.062,11.68-21.866,26.032-21.866c14.365,0,26.047,9.805,26.047,21.866c0,1.805-0.311,3.611-0.969,5.681
							C382.074,446.138,380.541,447.257,378.803,447.257L378.803,447.257z M339.49,439.281h36.088
							c0.01-0.161,0.018-0.319,0.018-0.473c0-7.66-8.107-13.887-18.068-13.887c-9.955,0-18.056,6.227-18.056,13.887
							C339.472,438.962,339.479,439.12,339.49,439.281L339.49,439.281z"/>
					</g>
				</g>
			</g>
		</g>
		<g>
			<g>
				<path fill="#FFFFFF" d="M258.649,244.135c0,10.829-8.781,19.601-19.61,19.601c-10.826,0-19.596-8.771-19.596-19.601
					c0-10.832,8.771-19.608,19.596-19.608C249.868,224.526,258.649,233.303,258.649,244.135z"/>
			</g>
			<g>
				<path fill="#1E1D1D" d="M239.04,267.723c-13.003,0-23.585-10.58-23.585-23.588c0-13.012,10.582-23.596,23.585-23.596
					c13.014,0,23.598,10.584,23.598,23.596C262.638,257.143,252.053,267.723,239.04,267.723L239.04,267.723z M239.04,228.519
					c-8.605,0-15.607,7.006-15.607,15.616c0,8.606,7.002,15.61,15.607,15.61c8.611,0,15.621-7.004,15.621-15.61
					C254.66,235.524,247.651,228.519,239.04,228.519L239.04,228.519z"/>
			</g>
		</g>
		<g>
			<g>
				<path fill="#FFFFFF" d="M418.992,244.135c0,10.829-8.783,19.601-19.607,19.601s-19.596-8.771-19.596-19.601
					c0-10.832,8.771-19.608,19.596-19.608S418.992,233.303,418.992,244.135z"/>
			</g>
			<g>
				<path fill="#1E1D1D" d="M399.385,267.723c-13.004,0-23.588-10.58-23.588-23.588c0-13.012,10.584-23.596,23.588-23.596
					c13.012,0,23.596,10.584,23.596,23.596C422.98,257.143,412.396,267.723,399.385,267.723L399.385,267.723z M399.385,228.519
					c-8.607,0-15.609,7.006-15.609,15.616c0,8.606,7.002,15.61,15.609,15.61c8.613,0,15.619-7.004,15.619-15.61
					C415.004,235.524,407.998,228.519,399.385,228.519L399.385,228.519z"/>
			</g>
		</g>
		<g>
			<g>
				<path fill="#1E1D1D" d="M319.948,215.645c-0.397,0-0.805-0.061-1.205-0.188c-2.101-0.666-3.266-2.906-2.601-5.009l14.407-45.545
					c0.628-1.989,2.686-3.186,4.718-2.68l39.205,9.229c2.146,0.502,3.477,2.651,2.969,4.795c-0.502,2.147-2.625,3.512-4.797,2.968
					l-35.603-8.378l-13.29,42.02C323.213,214.558,321.64,215.645,319.948,215.645L319.948,215.645z"/>
			</g>
		</g>
		<g>
			<g>
				<path fill="#FFFFFF" d="M285.932,325.809c17.676,0,31.998,17.286,31.998,38.627c0,21.338-14.322,38.623-31.998,38.623
					c-17.673,0-31.993-17.285-31.993-38.623C253.939,343.095,268.259,325.809,285.932,325.809z"/>
			</g>
			<g>
				<path fill="#1E1D1D" d="M285.932,407.048c-19.84,0-35.982-19.113-35.982-42.612c0-23.502,16.142-42.617,35.982-42.617
					c19.844,0,35.985,19.115,35.985,42.617C321.917,387.935,305.775,407.048,285.932,407.048L285.932,407.048z M285.932,329.798
					c-15.44,0-28.005,15.535-28.005,34.638c0,19.098,12.564,34.633,28.005,34.633c15.444,0,28.009-15.535,28.009-34.633
					C313.94,345.333,301.376,329.798,285.932,329.798L285.932,329.798z"/>
			</g>
		</g>
		<g>
			<g>
				<path fill="#FFFFFF" d="M405.012,178.505c0,8.531-6.92,15.451-15.447,15.451c-8.547,0-15.457-6.92-15.457-15.451
					c0-8.539,6.91-15.452,15.457-15.452C398.092,163.053,405.012,169.966,405.012,178.505z"/>
			</g>
			<g>
				<path fill="#1E1D1D" d="M389.564,197.944c-10.723,0-19.447-8.723-19.447-19.439c0-10.722,8.725-19.442,19.447-19.442
					c10.719,0,19.436,8.721,19.436,19.442C409,189.222,400.283,197.944,389.564,197.944L389.564,197.944z M389.564,167.042
					c-6.324,0-11.471,5.143-11.471,11.463c0,6.317,5.146,11.461,11.471,11.461c6.318,0,11.459-5.144,11.459-11.461
					C401.023,172.185,395.883,167.042,389.564,167.042L389.564,167.042z"/>
			</g>
		</g>
		<g>
			<g>
				<g>
					<g>
						<path fill="#FFFFFF" d="M307.943,443.289h21.693c19.258-10.021,33.543-45.99,33.543-88.943
							c0-50.711-19.878-91.812-44.39-91.812c-24.519,0-44.389,41.102-44.389,91.812
							C274.401,397.299,288.677,433.269,307.943,443.289z"/>
					</g>
				</g>
			</g>
			<g>
				<g>
					<g>
						<path fill="#1E1D1D" d="M330.613,447.281h-23.648l-0.863-0.447c-21.013-10.939-35.688-48.968-35.688-92.488
							c0-53.724,21.25-95.801,48.377-95.801c27.131,0,48.378,42.077,48.378,95.801c0,43.513-14.674,81.549-35.689,92.488
							L330.613,447.281L330.613,447.281z M308.956,439.301h19.662c17.769-10.115,30.573-45.544,30.573-84.955
							c0-47.604-18.504-87.825-40.401-87.825c-21.898,0-40.4,40.222-40.4,87.825C278.39,393.765,291.194,429.193,308.956,439.301
							L308.956,439.301z"/>
					</g>
				</g>
			</g>
		</g>
		<g>
			
				<rect x="288.188" y="293.874" transform="matrix(0.868 -0.4966 0.4966 0.868 -126.3503 190.7877)" fill="#FFFFFF" width="14.898" height="78.29"/>
			<path fill="#1E1D1D" d="M307.361,375.279l-42.21-73.786l18.761-10.734l42.211,73.789L307.361,375.279L307.361,375.279z
				 M274.315,303.987l35.54,62.127l7.104-4.063l-35.541-62.126L274.315,303.987L274.315,303.987z"/>
		</g>
		<g>
			<g>
				<polygon fill="#FFFFFF" points="360.49,320.979 349.34,311.098 278.755,390.738 286.338,397.461 292.707,397.461 				"/>
				<path fill="#1E1D1D" d="M294.218,400.818h-9.153l-11.049-9.793l75.039-84.668l16.174,14.334L294.218,400.818L294.218,400.818z
					 M287.612,394.102h3.583l64.555-72.837l-6.123-5.428l-66.131,74.617L287.612,394.102L287.612,394.102z"/>
			</g>
		</g>
		<g>
			<g>
				<path fill="#FFFFFF" d="M407.578,271.096c0,32.001-39.744,57.938-88.788,57.938c-49.033,0-88.784-25.937-88.784-57.938
					s39.751-57.941,88.784-57.941C367.834,213.154,407.578,239.095,407.578,271.096z"/>
			</g>
			<g>
				<path fill="#1E1D1D" d="M318.79,333.021c-51.155,0-92.772-27.781-92.772-61.926c0-34.148,41.617-61.929,92.772-61.929
					c51.155,0,92.774,27.78,92.774,61.929C411.564,305.24,369.945,333.021,318.79,333.021L318.79,333.021z M318.79,217.143
					c-46.754,0-84.796,24.204-84.796,53.953c0,29.747,38.042,53.946,84.796,53.946c46.757,0,84.796-24.199,84.796-53.946
					C403.586,241.347,365.547,217.143,318.79,217.143L318.79,217.143z"/>
			</g>
		</g>
		<g>
			<g>
				<path fill="#1E1D1D" d="M343.29,447.257h-47.851c-2.204,0-3.99-1.785-3.99-3.987c0-2.203,1.786-3.988,3.99-3.988h47.851
					c2.205,0,3.989,1.785,3.989,3.988C347.279,445.472,345.495,447.257,343.29,447.257L343.29,447.257z"/>
			</g>
		</g>
		<g>
			<g>
				<g>
					<path fill="#FF4500" d="M298.344,259.784c0,5.728-4.648,10.376-10.373,10.376c-5.738,0-10.382-4.648-10.382-10.376
						c0-5.735,4.644-10.379,10.382-10.379C293.695,249.405,298.344,254.049,298.344,259.784z"/>
				</g>
				<g>
					<path fill="#FF4717" d="M287.971,274.149c-7.923,0-14.371-6.444-14.371-14.365c0-7.924,6.448-14.369,14.371-14.369
						c7.922,0,14.361,6.445,14.361,14.369C302.332,267.705,295.893,274.149,287.971,274.149L287.971,274.149z"/>
				</g>
			</g>
			<g>
				<g>
					<path fill="#FF4500" d="M360.896,259.784c0,5.728-4.645,10.376-10.375,10.376c-5.724,0-10.376-4.648-10.376-10.376
						c0-5.735,4.652-10.379,10.376-10.379C356.252,249.405,360.896,254.049,360.896,259.784z"/>
				</g>
				<g>
					<path fill="#FF4717" d="M350.521,274.149c-7.92,0-14.364-6.444-14.364-14.365c0-7.924,6.444-14.369,14.364-14.369
						s14.361,6.445,14.361,14.369C364.883,267.705,358.441,274.149,350.521,274.149L350.521,274.149z"/>
				</g>
			</g>
			<g>
				<g>
					<path fill="#1E1D1D" d="M319.104,310.979c-15.46,0-26.378-3.398-33.374-10.393c-1.559-1.559-1.559-4.082-0.004-5.643
						c1.559-1.557,4.085-1.562,5.644-0.002c5.424,5.422,14.494,8.056,27.734,8.056c2.204,0,3.989,1.787,3.989,3.99
						C323.093,309.193,321.308,310.979,319.104,310.979L319.104,310.979z"/>
				</g>
			</g>
			<g>
				<g>
					<path fill="#1E1D1D" d="M319.328,310.979c-2.203,0-3.989-1.786-3.989-3.991c0-2.203,1.786-3.99,3.989-3.99
						c13.24,0,22.312-2.634,27.74-8.056c1.555-1.561,4.082-1.555,5.641,0.002c1.559,1.561,1.557,4.084-0.004,5.643
						C345.707,307.581,334.79,310.979,319.328,310.979L319.328,310.979z"/>
				</g>
			</g>
		</g>
		<g>
			<g>
				<path fill="#1E1D1D" d="M319.365,393.589c-15.196,0-29.512-1.444-42.096-3.993c0.797,4.352,1.747,8.547,2.842,12.555
					c12.235,2.366,26.049,3.704,40.674,3.704c12.972,0,25.304-1.053,36.468-2.942c1.162-4.165,2.172-8.533,3.012-13.078
					C347.973,392.231,334.083,393.589,319.365,393.589z"/>
			</g>
		</g>
		<g>
			<g>
				<path fill="#1E1D1D" d="M322.918,394.838c-0.531-0.52-1.04-1.048-1.557-1.572l-8.571,8.754c0.768,0.788,1.541,1.578,2.339,2.356
					c7.229,7.077,14.837,13.056,22.381,17.794c3.56-2.341,7.18-4.908,10.826-7.7C339.808,409.478,331.119,402.867,322.918,394.838z"
					/>
			</g>
		</g>
		<g>
			<g>
				<path fill="#1E1D1D" d="M309.288,399.01c0.355-0.513,0.686-1.033,1.029-1.549l10.084,6.955
					c-0.505,0.776-1.014,1.553-1.544,2.324c-1.473,2.136-3.009,4.17-4.586,6.124l-10.961-6.045
					C305.384,404.366,307.387,401.766,309.288,399.01z"/>
			</g>
			<g>
				<path fill="#1E1D1D" d="M290.979,418.942c1.152-0.928,2.295-1.917,3.428-2.934l11.479,5.974
					c-0.999,0.948-2.004,1.88-3.021,2.763C299.005,423.007,295.033,421.072,290.979,418.942z"/>
			</g>
			<g>
				<path fill="#B0272D" d="M303.311,406.819l10.961,6.045c-2.675,3.31-5.486,6.358-8.385,9.118l-11.479-5.974
					C297.478,413.254,300.465,410.187,303.311,406.819z"/>
			</g>
		</g>
		<g>
			<circle fill="#1E1D1D" cx="318.792" cy="399.589" r="9.646"/>
			<path fill="#FFFFFF" d="M318.792,410.916c-6.246,0-11.326-5.08-11.326-11.327c0-6.244,5.08-11.323,11.326-11.323
				c6.245,0,11.325,5.079,11.325,11.323C330.117,405.836,325.037,410.916,318.792,410.916L318.792,410.916z M318.792,391.623
				c-4.394,0-7.968,3.574-7.968,7.966c0,4.394,3.574,7.968,7.968,7.968s7.967-3.574,7.967-7.968
				C326.759,395.197,323.186,391.623,318.792,391.623L318.792,391.623z"/>
		</g>
	</g>
</g>
<g id="Layer_5">
	<g>
		<path fill="#FFFFFF" d="M210.055,482.323l26.788-11.76l8.652,4.437l-26.789,11.759L210.055,482.323z"/>
		<path fill="#FFFFFF" d="M277.915,485.659l-3.427,10.603l-9.817-1.438l7.533,12.819l-11.127-3.598l-6.253-10.669l-5.622-0.829
			l-2.242,6.935l-8.045-2.601l1.804-5.579l-4.842-0.714l1.544-4.777l4.842,0.714l3.626-11.22L277.915,485.659z M268.455,487.435
			l-15.936-5.151l-1.753,5.425l16.802,2.47L268.455,487.435z"/>
		<path fill="#FFFFFF" d="M274.605,507.724l21.487-19.842l9.622,1.373l-21.486,19.842L274.605,507.724z"/>
		<path fill="#FFFFFF" d="M342.384,497.442l-7.342,2.651l7.488,2.205l0.269,8.904l-33.643,1.015l-0.545-18.067l-4.824,0.146
			l-0.139-4.598l38.466-1.16L342.384,497.442z M327.559,498.019l6.294-2.977l-0.05-1.651l-16.74,0.505l0.135,4.436L327.559,498.019z
			 M317.336,502.929l0.133,4.437l16.74-0.505l-0.05-1.651l-6.462-2.593L317.336,502.929z"/>
		<path fill="#FFFFFF" d="M375.508,504.52l-28.854,6.055l-1.749-8.34l8.515-0.595l0.565,2.695l12.303-2.581l-2.768-13.19
			l-4.725,0.991l-0.944-4.503l13-2.728L375.508,504.52z"/>
		<path fill="#FFFFFF" d="M406.91,492.975l-27.521,10.566l-3.054-7.954l8.312-1.941l0.987,2.57l11.734-4.505l-4.831-12.581
			l-4.506,1.729l-1.649-4.294l12.399-4.761L406.91,492.975z"/>
	</g>
	<g>
		<path fill="#FFFFFF" d="M115.087,251.177l8.783,1.506l1.141,7.725l3.65-6.902l8.783,1.506l-5.691,33.183l-22.356-3.835
			L115.087,251.177z M121.489,267.332l-1.667-6.763l-1.629-0.279l-2.832,16.511l4.375,0.751L121.489,267.332z M124.271,278.329
			l4.375,0.751l2.832-16.512l-1.629-0.279l-3.826,5.82L124.271,278.329z"/>
		<path fill="#FFFFFF" d="M130.904,209.022l10.34,4.162l-2.121,9.695l13.319-6.62l-4.368,10.853l-11.084,5.493l-1.222,5.551
			l6.764,2.723l-3.158,7.846l-5.441-2.189l-1.051,4.781l-4.66-1.876l1.052-4.781l-10.942-4.404L130.904,209.022z M132.015,218.586
			l-6.256,15.541l5.291,2.13l3.641-16.594L132.015,218.586z"/>
		<path fill="#FFFFFF" d="M172.881,185.757l-4.853,7.28l-6.084-1.097l-7.657,11.485l3.352,5.195l-4.871,7.307l-10.659-16.608
			l-2.229,3.343l-3.829-2.552l12.493-18.739L172.881,185.757z M151.572,199.202L157,191.06l-8.403-1.474l-1.618,2.426
			L151.572,199.202z"/>
		<path fill="#FFFFFF" d="M187.351,149.249l-9.75,25.202L189.105,163l-1.6-1.607l5.125-6.838l5.714,5.741l-24.067,23.955
			l-5.006-5.029l9.75-25.203l-11.505,11.452l1.851,1.86l-5.079,6.884l-6.012-6.039l24.067-23.955L187.351,149.249z"/>
		<path fill="#FFFFFF" d="M210.417,151.965l-6.782,5.05l-10.796-14.5l-3.872,2.883l-2.748-3.69l10.654-7.933L210.417,151.965z"/>
		<path fill="#FFFFFF" d="M220.997,139.695l11.864-6.538l-1.33-2.413l6.844-5.104l4.114,7.464l-26.679,14.702l-8.727-15.837
			l-4.229,2.331l-2.221-4.03l11.636-6.413L220.997,139.695z"/>
		<path fill="#FFFFFF" d="M253.961,129.315l-7.874,3.083l-6.59-16.833l-4.495,1.76l-1.677-4.284l12.368-4.842L253.961,129.315z"/>
		<path fill="#FFFFFF" d="M291.477,119.287l-8.511,2.019l-3.705-4.949l-13.43,3.185l-1.087,6.085l-8.543,2.026l3.52-19.415
			l-3.909,0.927l-1.062-4.477l21.91-5.196L291.477,119.287z M266.724,114.602l9.521-2.258l-5.144-6.805l-2.837,0.673
			L266.724,114.602z"/>
		<path fill="#FFFFFF" d="M327.826,118.086l-7.156,0.212l-18.343-9.826l0.171,5.763l2.752-0.082l0.136,4.598l-11.203,0.333
			l-0.7-23.572l25.609,13.337l-0.255-8.581l-2.752,0.082l-0.137-4.598l11.203-0.333L327.826,118.086z"/>
		<path fill="#FFFFFF" d="M360.604,116.083l-0.73,2.655l12.119,3.333l4.793-17.429l8.152,2.242l-6.014,21.864l-28.423-7.817
			l2.259-8.215L360.604,116.083z"/>
		<path fill="#FFFFFF" d="M392.916,134.899l-7.789-3.286l7.024-16.654l-4.447-1.875l1.787-4.238l12.237,5.161L392.916,134.899z"/>
		<path fill="#FFFFFF" d="M408.124,134.741l2.409,4.032l10.757,6.507l9.357-15.471l7.236,4.377l-11.738,19.407l-19.935-12.057
			l-5.993-10.062l8.888-14.694l7.236,4.376L408.124,134.741z"/>
		<path fill="#FFFFFF" d="M463.336,190.231l-19.676-21.953l6.345-5.687l4.774,7.075l-2.051,1.838l8.39,9.359l10.035-8.994
			l-3.222-3.595l3.426-3.07l8.865,9.891L463.336,190.231z"/>
		<path fill="#FFFFFF" d="M471.783,202.945l-4.787-6.974l14.908-10.234l-2.732-3.98l3.794-2.604l7.52,10.954L471.783,202.945z"/>
		<path fill="#FFFFFF" d="M510.643,227.783l-8.135,4.017l-2.697-8.1l2.963-1.463l-2.409-4.881l-16.212,8.004l-3.743-7.583
			l16.211-8.004l-2.409-4.881l-2.964,1.463l-4.789-7.066l8.135-4.016L510.643,227.783z"/>
		<path fill="#FFFFFF" d="M513.05,234.689l8.393,32.234l-7.62,1.984l-0.876-8.511l1.912-0.498l-4.131-15.866l-2.979,0.775
			l2.467,25.038l-10.724,2.792l-8.392-32.234l7.212-1.878l0.938,8.494l-1.567,0.408l4.131,15.866l3.072-0.8l-2.467-25.038
			L513.05,234.689z"/>
		<path fill="#FFFFFF" d="M507.357,284.691l-1.991,4.254l0.633,12.557l18.06-0.911l0.426,8.447l-22.654,1.143l-1.174-23.27
			l4.98-10.602l17.153-0.865l0.426,8.447L507.357,284.691z"/>
	</g>
</g>
</svg>
