<?xml version="1.0" encoding="utf-8"?>
<!-- Generator: Adobe Illustrator 15.1.0, SVG Export Plug-In . SVG Version: 6.00 Build 0)  -->
<!DOCTYPE svg PUBLIC "-//W3C//DTD SVG 1.1//EN" "http://www.w3.org/Graphics/SVG/1.1/DTD/svg11.dtd">
<svg version="1.1" id="Layer_1" xmlns="http://www.w3.org/2000/svg" xmlns:xlink="http://www.w3.org/1999/xlink" x="0px" y="0px"
	 width="612px" height="792px" viewBox="0 0 612 792" enable-background="new 0 0 612 792" xml:space="preserve">
<g id="Layer_2">
	<g>
		<g>
			<g>
				<g>
					<path fill="#FFFFFF" d="M350.734,324.951c17.01,0,30.793,16.633,30.793,37.166s-13.783,37.165-30.793,37.165
						s-30.78-16.632-30.78-37.165S333.725,324.951,350.734,324.951z"/>
				</g>
			</g>
			<g>
				<g>
					<path d="M350.734,403.119c-19.086,0-34.617-18.391-34.617-41.002c0-22.612,15.531-41.003,34.617-41.003
						c19.1,0,34.633,18.391,34.633,41.003C385.367,384.729,369.834,403.119,350.734,403.119L350.734,403.119z M350.734,328.788
						c-14.855,0-26.941,14.949-26.941,33.329c0,18.378,12.086,33.325,26.941,33.325c14.863,0,26.955-14.946,26.955-33.325
						C377.689,343.736,365.598,328.788,350.734,328.788L350.734,328.788z"/>
				</g>
			</g>
		</g>
		<g>
			<g>
				<g>
					<g>
						<g>
							<path fill="#FFFFFF" d="M302.282,437.973c0.441-1.382,0.749-2.802,0.749-4.293c0-9.496-9.504-17.197-21.224-17.197
								c-11.718,0-21.211,7.701-21.211,17.197c0,1.491,0.306,2.911,0.747,4.293H302.282z"/>
						</g>
					</g>
				</g>
			</g>
			<g>
				<g>
					<g>
						<g>
							<path d="M302.282,441.81h-40.937c-1.675,0-3.155-1.082-3.661-2.67c-0.631-1.993-0.926-3.728-0.926-5.46
								c0-11.604,11.238-21.04,25.054-21.04s25.06,9.437,25.06,21.04c0,1.737-0.299,3.475-0.933,5.469
								C305.432,440.733,303.949,441.81,302.282,441.81L302.282,441.81z M264.452,434.14h34.721c0.013-0.159,0.022-0.309,0.022-0.46
								c0-7.371-7.798-13.364-17.382-13.364c-9.582,0-17.378,5.993-17.378,13.364C264.434,433.831,264.44,433.979,264.452,434.14
								L264.452,434.14z"/>
						</g>
					</g>
				</g>
			</g>
		</g>
		<g>
			<g>
				<g>
					<g>
						<g>
							<path fill="#FFFFFF" d="M376.587,437.973c0.446-1.382,0.751-2.802,0.751-4.293c0-9.496-9.502-17.197-21.227-17.197
								c-11.717,0-21.207,7.701-21.207,17.197c0,1.491,0.303,2.911,0.746,4.293H376.587z"/>
						</g>
					</g>
				</g>
			</g>
			<g>
				<g>
					<g>
						<g>
							<path d="M376.587,441.81H335.65c-1.666,0-3.143-1.075-3.653-2.661c-0.638-1.994-0.937-3.73-0.937-5.469
								c0-11.604,11.241-21.04,25.051-21.04c13.824,0,25.064,9.437,25.064,21.04c0,1.737-0.301,3.475-0.934,5.469
								C379.734,440.733,378.256,441.81,376.587,441.81L376.587,441.81z M338.758,434.14h34.725c0.009-0.159,0.016-0.309,0.016-0.46
								c0-7.371-7.796-13.364-17.387-13.364c-9.573,0-17.37,5.993-17.37,13.364C338.74,433.831,338.75,433.979,338.758,434.14
								L338.758,434.14z"/>
						</g>
					</g>
				</g>
			</g>
		</g>
		<g>
			<g>
				<g>
					<path fill="#FFFFFF" d="M260.972,246.366c0,10.419-8.448,18.859-18.868,18.859c-10.418,0-18.857-8.44-18.857-18.859
						c0-10.425,8.439-18.866,18.857-18.866C252.524,227.497,260.972,235.941,260.972,246.366z"/>
				</g>
			</g>
			<g>
				<g>
					<path d="M242.104,269.062c-12.512,0-22.693-10.183-22.693-22.697c0-12.521,10.182-22.706,22.693-22.706
						c12.522,0,22.707,10.185,22.707,22.706C264.811,258.88,254.623,269.062,242.104,269.062L242.104,269.062z M242.104,231.338
						c-8.279,0-15.017,6.743-15.017,15.027c0,8.281,6.738,15.02,15.017,15.02c8.286,0,15.032-6.739,15.032-15.02
						C257.134,238.08,250.389,231.338,242.104,231.338L242.104,231.338z"/>
				</g>
			</g>
		</g>
		<g>
			<g>
				<g>
					<path fill="#FFFFFF" d="M415.255,246.366c0,10.419-8.448,18.859-18.868,18.859c-10.414,0-18.854-8.44-18.854-18.859
						c0-10.425,8.44-18.866,18.854-18.866C406.807,227.5,415.255,235.941,415.255,246.366z"/>
				</g>
			</g>
			<g>
				<g>
					<path d="M396.387,269.062c-12.511,0-22.695-10.183-22.695-22.697c0-12.521,10.186-22.706,22.695-22.706
						c12.521,0,22.709,10.185,22.709,22.706C419.096,258.88,408.906,269.062,396.387,269.062L396.387,269.062z M396.387,231.338
						c-8.281,0-15.019,6.743-15.019,15.027c0,8.281,6.737,15.02,15.019,15.02c8.289,0,15.029-6.739,15.029-15.02
						C411.416,238.08,404.676,231.338,396.387,231.338L396.387,231.338z"/>
				</g>
			</g>
		</g>
		<g>
			<g>
				<g>
					<path d="M319.954,218.952c-0.386,0-0.777-0.06-1.157-0.181c-2.023-0.642-3.145-2.797-2.504-4.818l13.863-43.826
						c0.602-1.914,2.583-3.063,4.537-2.577l37.721,8.879c2.07,0.484,3.35,2.552,2.857,4.616c-0.483,2.063-2.523,3.376-4.613,2.855
						l-34.26-8.063l-12.789,40.431C323.094,217.906,321.583,218.952,319.954,218.952L319.954,218.952z"/>
				</g>
			</g>
		</g>
		<g>
			<g>
				<g>
					<path fill="#FFFFFF" d="M287.222,324.951c17.01,0,30.792,16.633,30.792,37.166s-13.781,37.165-30.792,37.165
						c-17.004,0-30.782-16.632-30.782-37.165S270.218,324.951,287.222,324.951z"/>
				</g>
			</g>
			<g>
				<g>
					<path d="M287.222,403.119c-19.089,0-34.619-18.391-34.619-41.002c0-22.612,15.53-41.003,34.619-41.003
						c19.094,0,34.629,18.391,34.629,41.003C321.852,384.729,306.316,403.119,287.222,403.119L287.222,403.119z M287.222,328.788
						c-14.854,0-26.944,14.949-26.944,33.329c0,18.378,12.09,33.325,26.944,33.325c14.86,0,26.948-14.946,26.948-33.325
						C314.17,343.736,302.083,328.788,287.222,328.788L287.222,328.788z"/>
				</g>
			</g>
		</g>
		<g>
			<g>
				<g>
					<path fill="#FFFFFF" d="M401.8,183.215c0,8.209-6.655,14.868-14.86,14.868c-8.225,0-14.873-6.659-14.873-14.868
						c0-8.216,6.648-14.867,14.873-14.867C395.145,168.348,401.8,174.999,401.8,183.215z"/>
				</g>
			</g>
			<g>
				<g>
					<path d="M386.939,201.921c-10.317,0-18.713-8.396-18.713-18.707c0-10.317,8.396-18.707,18.713-18.707
						c10.313,0,18.702,8.391,18.702,18.707C405.643,193.528,397.254,201.921,386.939,201.921L386.939,201.921z M386.939,172.186
						c-6.084,0-11.041,4.948-11.041,11.029s4.953,11.029,11.041,11.029c6.08,0,11.022-4.949,11.022-11.029
						C397.963,177.134,393.02,172.186,386.939,172.186L386.939,172.186z"/>
				</g>
			</g>
		</g>
		<g>
			<g>
				<g>
					<g>
						<g>
							<path fill="#FFFFFF" d="M308.4,437.992h20.875c18.533-9.646,32.274-44.25,32.274-85.582c0-48.793-19.125-88.341-42.71-88.341
								c-23.592,0-42.715,39.548-42.715,88.341C276.13,393.742,289.865,428.348,308.4,437.992z"/>
						</g>
					</g>
				</g>
			</g>
			<g>
				<g>
					<g>
						<g>
							<path d="M330.218,441.833h-22.757l-0.83-0.431c-20.22-10.523-34.337-47.116-34.337-88.992
								c0-51.694,20.443-92.18,46.547-92.18c26.108,0,46.552,40.486,46.552,92.18c0,41.87-14.119,78.469-34.342,88.992
								L330.218,441.833L330.218,441.833z M309.376,434.156h18.918c17.099-9.736,29.418-43.824,29.418-81.746
								c0-45.805-17.801-84.506-38.871-84.506c-21.071,0-38.875,38.702-38.875,84.506
								C279.966,390.339,292.286,424.429,309.376,434.156L309.376,434.156z"/>
						</g>
					</g>
				</g>
			</g>
		</g>
		<g>
			<g>
				
					<rect x="289.386" y="294.242" transform="matrix(0.868 -0.4966 0.4966 0.868 -125.6787 191.0985)" fill="#FFFFFF" width="14.335" height="75.334"/>
			</g>
			<g>
				<path d="M307.843,372.553l-40.614-70.999l18.05-10.328l40.618,70.996L307.843,372.553L307.843,372.553z M276.043,303.954
					l34.195,59.781l6.839-3.911l-34.196-59.778L276.043,303.954L276.043,303.954z"/>
			</g>
		</g>
		<g>
			<g>
				<g>
					<polygon fill="#FFFFFF" points="358.964,320.305 348.234,310.797 280.317,387.427 287.615,393.897 293.742,393.897 					"/>
				</g>
				<g>
					<path d="M295.196,397.127h-8.805l-10.633-9.424l72.202-81.468l15.567,13.793L295.196,397.127L295.196,397.127z
						 M288.839,390.662h3.447l62.114-70.083l-5.889-5.222l-63.632,71.797L288.839,390.662L288.839,390.662z"/>
				</g>
			</g>
		</g>
		<g>
			<g>
				<g>
					<path fill="#FFFFFF" d="M404.27,272.306c0,30.792-38.237,55.75-85.429,55.75c-47.181,0-85.429-24.958-85.429-55.75
						s38.248-55.75,85.429-55.75C366.031,216.555,404.27,241.514,404.27,272.306z"/>
				</g>
			</g>
			<g>
				<g>
					<path d="M318.841,331.891c-49.223,0-89.267-26.729-89.267-59.583c0-32.857,40.043-59.589,89.267-59.589
						c49.222,0,89.269,26.731,89.269,59.589C408.108,305.161,368.062,331.891,318.841,331.891L318.841,331.891z M318.841,220.392
						c-44.987,0-81.594,23.291-81.594,51.914s36.607,51.907,81.594,51.907c44.991,0,81.591-23.284,81.591-51.907
						S363.832,220.392,318.841,220.392L318.841,220.392z"/>
				</g>
			</g>
		</g>
		<g>
			<g>
				<g>
					<path d="M342.412,441.81h-46.039c-2.124,0-3.839-1.719-3.839-3.837c0-2.12,1.715-3.833,3.839-3.833h46.039
						c2.124,0,3.844,1.713,3.844,3.833C346.256,440.091,344.536,441.81,342.412,441.81L342.412,441.81z"/>
				</g>
			</g>
		</g>
		<g>
			<g>
				<g>
					<g>
						<path fill="#F05133" d="M289.188,275.244c-7.625,0-13.829-6.199-13.829-13.82c0-7.628,6.204-13.827,13.829-13.827
							c7.623,0,13.815,6.199,13.815,13.827C303.003,269.045,296.81,275.244,289.188,275.244L289.188,275.244z"/>
					</g>
				</g>
			</g>
			<g>
				<g>
					<g>
						<path fill="#F05133" d="M349.369,275.244c-7.622,0-13.821-6.199-13.821-13.82c0-7.628,6.199-13.827,13.821-13.827
							c7.625,0,13.82,6.199,13.82,13.827C363.189,269.045,356.994,275.244,349.369,275.244L349.369,275.244z"/>
					</g>
				</g>
			</g>
			<g>
				<g>
					<g>
						<path d="M319.145,310.682c-14.876,0-25.382-3.269-32.116-10c-1.501-1.499-1.501-3.926-0.002-5.43
							c1.496-1.496,3.931-1.502,5.429-0.001c5.218,5.217,13.945,7.752,26.688,7.752c2.119,0,3.836,1.719,3.836,3.84
							C322.98,308.964,321.264,310.682,319.145,310.682L319.145,310.682z"/>
					</g>
				</g>
			</g>
			<g>
				<g>
					<g>
						<path d="M319.355,310.682c-2.117,0-3.836-1.717-3.836-3.839c0-2.12,1.719-3.838,3.836-3.838
							c12.744,0,21.472-2.536,26.695-7.753c1.495-1.502,3.926-1.494,5.426,0.001c1.496,1.502,1.496,3.93-0.006,5.432
							C344.74,307.413,334.236,310.682,319.355,310.682L319.355,310.682z"/>
					</g>
				</g>
			</g>
		</g>
		<g>
			<g>
				<g>
					<path d="M319.396,390.17c-14.628,0-28.397-1.391-40.509-3.843c0.768,4.188,1.683,8.222,2.733,12.083
						c11.775,2.278,25.067,3.562,39.14,3.562c12.48,0,24.348-1.013,35.09-2.832c1.121-4.007,2.092-8.21,2.899-12.583
						C346.919,388.865,333.555,390.17,319.396,390.17z"/>
				</g>
			</g>
		</g>
		<g>
			<g>
				<g>
					<path d="M322.809,391.372c-0.507-0.5-0.996-1.009-1.49-1.511l-8.25,8.422c0.738,0.76,1.481,1.518,2.248,2.265
						c6.955,6.812,14.278,12.565,21.533,17.123c3.43-2.253,6.909-4.723,10.416-7.409C339.064,405.455,330.701,399.1,322.809,391.372
						z"/>
				</g>
			</g>
		</g>
		<g>
			<g>
				<g>
					<path d="M309.698,395.387c0.339-0.497,0.659-0.995,0.987-1.488l9.705,6.69c-0.485,0.745-0.978,1.492-1.486,2.236
						c-1.418,2.055-2.896,4.011-4.41,5.892l-10.549-5.816C305.939,400.538,307.871,398.035,309.698,395.387z"/>
				</g>
			</g>
			<g>
				<g>
					<path d="M292.082,414.562c1.104-0.892,2.205-1.844,3.296-2.823l11.046,5.749c-0.961,0.912-1.93,1.812-2.905,2.662
						C299.799,418.474,295.982,416.613,292.082,414.562z"/>
				</g>
			</g>
			<g>
				<g>
					<path fill="#820024" d="M303.947,402.899l10.547,5.816c-2.575,3.187-5.276,6.119-8.07,8.771l-11.046-5.749
						C298.334,409.086,301.208,406.14,303.947,402.899z"/>
				</g>
			</g>
		</g>
		<g>
			<g>
				<circle cx="318.841" cy="395.945" r="9.282"/>
			</g>
			<g>
				<path fill="#FFFFFF" d="M318.841,406.843c-6.009,0-10.897-4.89-10.897-10.897c0-6.012,4.89-10.896,10.897-10.896
					c6.007,0,10.898,4.885,10.898,10.896C329.739,401.953,324.848,406.843,318.841,406.843L318.841,406.843z M318.841,388.279
					c-4.226,0-7.667,3.436-7.667,7.665c0,4.224,3.441,7.665,7.667,7.665c4.229,0,7.666-3.441,7.666-7.665
					C326.507,391.715,323.07,388.279,318.841,388.279L318.841,388.279z"/>
			</g>
		</g>
	</g>
</g>
</svg>
