<?xml version="1.0" encoding="UTF-8"?>
<svg width="612" height="792" xmlns="http://www.w3.org/2000/svg">
 <g>
  <title>Layer 1</title>
  <circle id="svg_47" r="231.398438" cy="294.999998" cx="315.000004" stroke="#000000" fill="none"/>
  <circle id="svg_1" r="183.703125" cy="295.499995" cx="315.499996" stroke-width="44" stroke="#000000" fill="#bddcfc"/>
  <g id="Layer_2">
   <g>
    <g>
     <g>
      <path d="m342.604156,301.802826c14.526154,0 26.298035,14.204041 26.298035,31.740204c0,17.5336 -11.771881,31.736908 -26.298035,31.736908c-14.524536,0 -26.285645,-14.203308 -26.285645,-31.736908c-0.000854,-17.536163 11.761108,-31.740204 26.285645,-31.740204z" fill="#FFFFFF"/>
     </g>
     <g>
      <path d="m342.604156,368.557709c-16.30191,0 -29.564331,-15.705292 -29.564331,-35.014679c0,-19.311829 13.262421,-35.01889 29.564331,-35.01889c16.309265,0 29.574951,15.707062 29.574951,35.01889c0,19.309387 -13.266479,35.014679 -29.574951,35.014679l0,0zm0,-63.477112c-12.687286,0 -23.008759,12.765259 -23.008759,28.462433c0,15.692963 10.321472,28.458252 23.008759,28.458252c12.692932,0 23.020996,-12.765289 23.020996,-28.458252c-0.000763,-15.697174 -10.328003,-28.462433 -23.020996,-28.462433l0,0z" fill="#1E1D1D"/>
     </g>
    </g>
    <g>
     <g>
      <g>
       <g>
        <path d="m301.226166,398.321686c0.37793,-1.180786 0.639221,-2.392822 0.639221,-3.665649c0,-8.111115 -8.115143,-14.687225 -18.122833,-14.687225c-10.006775,0 -18.116211,6.576111 -18.116211,14.687225c0,1.272827 0.262939,2.484863 0.638458,3.665649h34.961365l0,0z" fill="#FFFFFF"/>
       </g>
      </g>
     </g>
     <g>
      <g>
       <g>
        <path d="m301.226166,401.59787h-34.96051c-1.429779,0 -2.691956,-0.924438 -3.125732,-2.278625c-0.539124,-1.7034 -0.789795,-3.186584 -0.789795,-4.663208c0,-9.911469 9.596863,-17.967499 21.39328,-17.967499c11.799774,0 21.39978,8.056854 21.39978,17.967499c0,1.483185 -0.253082,2.967194 -0.794586,4.668152c-0.435516,1.354187 -1.697632,2.273682 -3.122437,2.273682l0,0zm-32.306396,-6.553955h29.65387c0.008148,-0.132294 0.014771,-0.262146 0.014771,-0.388672c0,-6.294312 -6.659149,-11.411102 -14.845001,-11.411102c-8.181824,0 -14.83844,5.116791 -14.83844,11.411102c0,0.126526 0.005737,0.256378 0.014801,0.388672l0,0z" fill="#1E1D1D"/>
       </g>
      </g>
     </g>
    </g>
    <g>
     <g>
      <g>
       <g>
        <path d="m364.679413,398.321686c0.38208,-1.180786 0.643372,-2.392822 0.643372,-3.665649c0,-8.111115 -8.115967,-14.687225 -18.126099,-14.687225c-10.005066,0 -18.112152,6.576111 -18.112152,14.687225c0,1.272827 0.261383,2.484863 0.639313,3.665649h34.955566l0,0z" fill="#FFFFFF"/>
       </g>
      </g>
     </g>
     <g>
      <g>
       <g>
        <path d="m364.679413,401.59787h-34.954742c-1.426453,0 -2.687775,-0.919495 -3.123322,-2.274536c-0.540649,-1.700104 -0.795441,-3.184937 -0.795441,-4.668091c0,-9.911469 9.597595,-17.96756 21.390778,-17.96756c11.803833,0 21.403076,8.056885 21.403076,17.96756c0,1.483154 -0.255585,2.967194 -0.796204,4.668091c-0.436371,1.355042 -1.696045,2.274536 -3.124146,2.274536l0,0zm-32.303864,-6.553955h29.653778c0.00827,-0.132294 0.014862,-0.262146 0.014862,-0.388672c0,-6.294312 -6.66156,-11.411102 -14.846649,-11.411102c-8.180176,0 -14.836761,5.116791 -14.836761,11.411102c0,0.126526 0.005737,0.256378 0.014771,0.388672l0,0z" fill="#1E1D1D"/>
       </g>
      </g>
     </g>
    </g>
    <g>
     <g>
      <path d="m265.947571,234.69043c0,8.898285 -7.215393,16.106354 -16.11377,16.106354c-8.895706,0 -16.102112,-7.20723 -16.102112,-16.106354c0,-8.900772 7.20723,-16.112076 16.102112,-16.112076c8.898376,-0.000839 16.11377,7.211304 16.11377,16.112076z" fill="#FFFFFF"/>
     </g>
     <g>
      <path d="m249.834686,254.072891c-10.684677,0 -19.380035,-8.693695 -19.380035,-19.382462c0,-10.692108 8.695358,-19.389069 19.380035,-19.389069c10.693726,0 19.390747,8.69696 19.390747,19.389069c0,10.688797 -8.697815,19.382462 -19.390747,19.382462l0,0zm0,-32.214294c-7.07077,0 -12.824432,5.756927 -12.824432,12.831833c0,7.07164 5.753662,12.826874 12.824432,12.826874c7.075775,0 12.835999,-5.755234 12.835999,-12.826874c-0.000854,-7.07576 -5.760162,-12.831833 -12.835999,-12.831833l0,0z" fill="#1E1D1D"/>
     </g>
    </g>
    <g>
     <g>
      <path d="m397.703156,234.69043c0,8.898285 -7.217102,16.106354 -16.111237,16.106354s-16.102295,-7.20723 -16.102295,-16.106354c0,-8.900772 7.207214,-16.112076 16.102295,-16.112076s16.111237,7.211304 16.111237,16.112076z" fill="#FFFFFF"/>
     </g>
     <g>
      <path d="m381.591919,254.072891c-10.685547,0 -19.382568,-8.693695 -19.382568,-19.382462c0,-10.692108 8.697021,-19.389069 19.382568,-19.389069c10.692017,0 19.388947,8.69696 19.388947,19.389069c-0.000793,10.688797 -8.697784,19.382462 -19.388947,19.382462l0,0zm0,-32.214294c-7.072571,0 -12.826141,5.756927 -12.826141,12.831833c0,7.07164 5.753571,12.826874 12.826141,12.826874c7.077362,0 12.834198,-5.755234 12.834198,-12.826874c0,-7.07576 -5.756836,-12.831833 -12.834198,-12.831833l0,0z" fill="#1E1D1D"/>
     </g>
    </g>
    <g>
     <g>
      <path d="m316.317657,211.279922c-0.326202,0 -0.661438,-0.05014 -0.990143,-0.154495c-1.72641,-0.547256 -2.683746,-2.387894 -2.137268,-4.115952l11.838348,-37.424774c0.515991,-1.634384 2.207092,-2.617981 3.876862,-2.202194l32.215088,7.583572c1.763458,0.412506 2.857178,2.17836 2.439667,3.940094c-0.412537,1.764206 -2.156952,2.885834 -3.94162,2.438843l-29.255402,-6.884308l-10.920624,34.52829c-0.442108,1.397705 -1.734528,2.290924 -3.124908,2.290924l0,0z" fill="#1E1D1D"/>
     </g>
    </g>
    <g>
     <g>
      <path d="m288.366364,301.802826c14.524506,0 26.293091,14.204041 26.293091,31.740204c0,17.5336 -11.768585,31.736908 -26.293091,31.736908c-14.522064,0 -26.28894,-14.203308 -26.28894,-31.736908c0,-17.536163 11.766876,-31.740204 26.28894,-31.740204z" fill="#FFFFFF"/>
     </g>
     <g>
      <path d="m288.366364,368.557709c-16.302765,0 -29.566803,-15.705292 -29.566803,-35.014679c0,-19.311829 13.264038,-35.01889 29.566803,-35.01889c16.305969,0 29.569244,15.707062 29.569244,35.01889c0,19.309387 -13.26413,35.014679 -29.569244,35.014679l0,0zm0,-63.477112c-12.687225,0 -23.012054,12.765259 -23.012054,28.462433c0,15.692963 10.324005,28.458252 23.012054,28.458252c12.690521,0 23.015289,-12.765289 23.015289,-28.458252c-0.000854,-15.697174 -10.324768,-28.462433 -23.015289,-28.462433l0,0z" fill="#1E1D1D"/>
     </g>
    </g>
    <g>
     <g>
      <path d="m386.215607,180.761581c0,7.010025 -5.686279,12.696259 -12.692963,12.696259c-7.023163,0 -12.701202,-5.686234 -12.701202,-12.696259c0,-7.016571 5.67804,-12.697052 12.701202,-12.697052c7.006775,-0.000015 12.692963,5.680481 12.692963,12.697052z" fill="#FFFFFF"/>
     </g>
     <g>
      <path d="m373.52182,196.734802c-8.811157,0 -15.979828,-7.16777 -15.979828,-15.973221c0,-8.810364 7.169495,-15.975662 15.979828,-15.975662c8.807861,0 15.970764,7.166122 15.970764,15.975662c0,8.806274 -7.162903,15.973221 -15.970764,15.973221l0,0zm0,-25.392471c-5.196503,0 -9.425873,4.226074 -9.425873,9.41925c0,5.190765 4.228607,9.417648 9.425873,9.417648c5.191589,0 9.415985,-4.226883 9.415985,-9.417648c0.000061,-5.193192 -4.223541,-9.41925 -9.415985,-9.41925l0,0z" fill="#1E1D1D"/>
     </g>
    </g>
    <g>
     <g>
      <g>
       <g>
        <path d="m306.453003,398.337311h17.825378c15.824524,-8.234344 27.562653,-37.790436 27.562653,-73.085358c0,-41.669769 -16.333984,-75.442871 -36.475769,-75.442871c-20.147491,0 -36.474915,33.773926 -36.474915,75.442871c0.000824,35.294922 11.731659,64.851837 27.562653,73.085358z" fill="#FFFFFF"/>
       </g>
      </g>
     </g>
     <g>
      <g>
       <g>
        <path d="m325.081207,401.617615h-19.431885l-0.709076,-0.36734c-17.266571,-8.988678 -29.325226,-40.237518 -29.325226,-75.998322c0,-44.145569 17.461426,-78.720688 39.751923,-78.720688c22.293823,0 39.752625,34.575119 39.752625,78.720688c0,35.755066 -12.057709,67.009644 -29.325958,75.998322l-0.712402,0.36734l0,0zm-17.795746,-6.557281h16.156403c14.600922,-8.311615 25.122101,-37.42395 25.122101,-69.808411c0,-39.116669 -15.204926,-72.166718 -33.197876,-72.166718c-17.993805,0 -33.197113,33.050934 -33.197113,72.166718c0.000061,32.391022 10.521271,61.502563 25.116486,69.808411l0,0z" fill="#1E1D1D"/>
       </g>
      </g>
     </g>
    </g>
    <g>
     <rect height="78.29" width="14.898" fill="#FFFFFF" transform="matrix(0.713244, -0.408061, 0.408061, 0.713244, -36.2211, 175.802)" y="301.198704" x="264.103415"/>
     <path d="m305.974731,342.452789l-34.684326,-60.630676l15.416046,-8.820251l34.685181,60.633179l-15.416901,8.817749l0,0zm-27.154236,-58.581329l29.203613,51.050385l5.837433,-3.338654l-29.204376,-51.049591l-5.83667,3.33786l0,0z" fill="#1E1D1D"/>
    </g>
    <g>
     <g>
      <polygon points="349.6314392089844,297.8338928222656 340.4693298339844,289.7145690917969 282.46893310546875,355.1556396484375 288.6999816894531,360.6799621582031 293.9334411621094,360.6799621582031 " fill="#FFFFFF"/>
      <path d="m295.175018,363.438477h-7.521118l-9.079041,-8.047028l61.660278,-69.572571l13.290375,11.778381l-58.350494,65.841217l0,0zm-5.428192,-5.518646h2.944183l53.045532,-59.850922l-5.031342,-4.460205l-54.340515,61.313568l3.382141,2.997559l0,0z" fill="#1E1D1D"/>
     </g>
    </g>
    <g>
     <g>
      <path d="m388.324097,256.844604c0,26.295502 -32.65799,47.608185 -72.958008,47.608185c-40.290924,0 -72.954666,-21.312683 -72.954666,-47.608185s32.663742,-47.610748 72.954666,-47.610748c40.300018,-0.000839 72.958008,21.315155 72.958008,47.610748z" fill="#FFFFFF"/>
     </g>
     <g>
      <path d="m315.366089,307.728973c-42.034576,0 -76.231705,-22.827942 -76.231705,-50.885254c0,-28.059723 34.197128,-50.88768 76.231705,-50.88768c42.034546,0 76.233368,22.827118 76.233368,50.88768c0,28.057312 -34.198822,50.885254 -76.233368,50.885254l0,0zm0,-95.218155c-38.418213,0 -69.67778,19.888718 -69.67778,44.333786c0,24.443359 31.259567,44.327942 69.67778,44.327942c38.420715,0 69.677795,-19.884583 69.677795,-44.327942c0,-24.445114 -31.25708,-44.333786 -69.677795,-44.333786l0,0z" fill="#1E1D1D"/>
     </g>
    </g>
    <g>
     <g>
      <path d="m335.497986,401.59787h-39.319672c-1.811035,0 -3.278564,-1.466736 -3.278564,-3.276184c0,-1.810211 1.467529,-3.276978 3.278564,-3.276978h39.319672c1.81189,0 3.277893,1.466766 3.277893,3.276978c-0.000092,1.809448 -1.466003,3.276184 -3.277893,3.276184l0,0z" fill="#1E1D1D"/>
     </g>
    </g>
    <g>
     <g>
      <g>
       <path d="m298.565399,247.549393c0,4.706696 -3.819336,8.526047 -8.523621,8.526047c-4.714966,0 -8.531006,-3.819351 -8.531006,-8.526047c0,-4.712555 3.81604,-8.528534 8.531006,-8.528534c4.703491,0 8.523621,3.815979 8.523621,8.528534z" fill="#FF4500"/>
      </g>
      <g>
       <path d="m290.04187,259.353241c-6.510468,0 -11.808807,-5.29512 -11.808807,-11.803848c0,-6.511246 5.29834,-11.807175 11.808807,-11.807175c6.509552,0 11.800476,5.295929 11.800476,11.807175c0,6.508728 -5.290924,11.803848 -11.800476,11.803848l0,0z" fill="#FF4717"/>
      </g>
     </g>
     <g>
      <g>
       <path d="m349.965027,247.549393c0,4.706696 -3.816833,8.526047 -8.525269,8.526047c-4.703369,0 -8.526062,-3.819351 -8.526062,-8.526047c0,-4.712555 3.822693,-8.528534 8.526062,-8.528534c4.70929,0 8.525269,3.815979 8.525269,8.528534z" fill="#FF4500"/>
      </g>
      <g>
       <path d="m341.439758,259.353241c-6.507935,0 -11.80304,-5.29512 -11.80304,-11.803848c0,-6.511246 5.295105,-11.807175 11.80304,-11.807175s11.800598,5.295929 11.800598,11.807175c0.000824,6.508728 -5.292572,11.803848 -11.800598,11.803848l0,0z" fill="#FF4717"/>
      </g>
     </g>
     <g>
      <g>
       <path d="m315.624146,289.616852c-12.703674,0 -21.675049,-2.792206 -27.423737,-8.5401c-1.281128,-1.280945 -1.281128,-3.354126 -0.003326,-4.636871c1.281067,-1.279388 3.356689,-1.283508 4.637695,-0.001648c4.457001,4.455322 11.909882,6.61972 22.789368,6.61972c1.811035,0 3.27774,1.468384 3.27774,3.278595c0,1.812714 -1.466705,3.280304 -3.27774,3.280304l0,0z" fill="#1E1D1D"/>
      </g>
     </g>
     <g>
      <g>
       <path d="m315.808197,289.616852c-1.810181,0 -3.277863,-1.46759 -3.277863,-3.27948c0,-1.810181 1.467682,-3.278595 3.277863,-3.278595c10.879425,0 18.333984,-2.164398 22.79425,-6.61972c1.27774,-1.282684 3.354218,-1.27774 4.635254,0.001648c1.281067,1.282654 1.279358,3.355865 -0.003326,4.636902c-5.750275,5.74704 -14.720886,8.539246 -27.426178,8.539246l0,0z" fill="#1E1D1D"/>
      </g>
     </g>
    </g>
    <g>
     <g>
      <path d="m315.838593,357.498291c-12.486725,0 -24.250305,-1.186523 -34.590698,-3.281067c0.654816,3.576111 1.435455,7.023132 2.335297,10.31662c10.053558,1.944122 21.404694,3.043549 33.42218,3.043549c10.65918,0 20.792664,-0.865234 29.966217,-2.41748c0.954712,-3.422394 1.784698,-7.011627 2.474976,-10.746246c-10.100525,1.96875 -21.514038,3.084625 -33.607971,3.084625z" fill="#1E1D1D"/>
     </g>
    </g>
    <g>
     <g>
      <path d="m318.758118,358.524658c-0.436371,-0.427307 -0.854553,-0.861176 -1.279388,-1.291748l-7.042908,7.193237c0.631134,0.647522 1.266296,1.296692 1.921997,1.935944c5.940155,5.815247 12.191711,10.728271 18.390747,14.621521c2.925232,-1.923645 5.899872,-4.032928 8.895721,-6.327148c-7.007507,-4.10199 -14.147308,-9.534332 -20.886169,-16.131805z" fill="#1E1D1D"/>
     </g>
    </g>
    <g>
     <g>
      <path d="m307.558197,361.952789c0.291748,-0.421539 0.563751,-0.848785 0.845581,-1.272827l8.286072,5.715027c-0.414886,0.637665 -0.833221,1.276123 -1.268707,1.909637c-1.210297,1.755157 -2.472473,3.426514 -3.768372,5.032166l-9.006775,-4.967224c1.704224,-2.015686 3.350159,-4.15213 4.912201,-6.416779z" fill="#1E1D1D"/>
     </g>
     <g>
      <path d="m292.513519,378.331146c0.946594,-0.762573 1.885834,-1.575256 2.816803,-2.410919l9.432434,4.908905c-0.820892,0.778961 -1.646729,1.54483 -2.482422,2.270386c-3.171814,-1.428101 -6.435577,-3.018127 -9.766815,-4.768372z" fill="#1E1D1D"/>
     </g>
     <g>
      <path d="m302.646881,368.369568l9.006714,4.967224c-2.198029,2.719849 -4.507813,5.224396 -6.890015,7.49234l-9.432434,-4.908905c2.522675,-2.26297 4.977112,-4.783173 7.315735,-7.550659z" fill="#B0272D"/>
     </g>
    </g>
    <g>
     <circle r="7.925781" cy="362.42858" cx="315.367748" fill="#1E1D1D"/>
     <path d="m315.367737,371.736115c-5.132446,0 -9.306732,-4.174316 -9.306732,-9.307556c0,-5.130737 4.174286,-9.30423 9.306732,-9.30423c5.1315,0 9.305939,4.173492 9.305939,9.30423c0,5.13324 -4.174438,9.307556 -9.305939,9.307556l0,0zm0,-15.853302c-3.610565,0 -6.547424,2.936798 -6.547424,6.545746c0,3.610626 2.936859,6.547394 6.547424,6.547394s6.54657,-2.936768 6.54657,-6.547394c0,-3.608948 -2.935944,-6.545746 -6.54657,-6.545746l0,0z" fill="#FFFFFF"/>
    </g>
   </g>
  </g>
  <line id="svg_3" y2="452.773815" x2="463.000003" y1="414.193038" x1="421.999999" stroke-width="8" stroke="#ffffff" fill="none"/>
  <line transform="rotate(-18.2379, 498.436, 339.273)" id="svg_4" y2="355.596441" x2="520.091772" y1="322.949037" x1="476.779636" stroke-width="8" stroke="#ffffff" fill="none"/>
  <rect id="svg_23" height="131" width="436" y="1817" x="1624" stroke-width="42" stroke="#bf0000" fill="none"/>
  <path d="m119.260948,257.023773c2.132713,0 15.916313,0.530579 21.327293,1.066376c1.061234,0.105042 1.066376,0 2.132721,0c1.066376,0 2.132813,0 3.199158,0c0,0 1.066376,0 2.132721,0c1.06633,0 1.06633,0 2.13269,0c1.066437,0 2.132843,0 3.199188,0c0,0 1.378616,0.753967 2.132706,0c0.754105,-0.754028 0,-2.132736 0,-3.199127c0,0 0,-1.066284 0,-3.199036c0,0 0,-1.066422 0,-2.132782c0,-1.06633 0,-2.13269 0,-3.199005c0,-1.066437 -0.754089,-1.378784 0,-2.132797c0.754105,-0.754044 1.066345,-1.066406 1.066345,-2.132751c0,-1.066437 0,-1.066437 0,-2.132721c0,-1.066391 0,-1.066391 0,-2.132751c0,-1.06633 0,-2.13269 0,-2.13269c0,-2.132751 0,-2.132751 0,-3.199173c0,-1.066299 0,-2.132629 0,-2.132629c0,-1.066422 0,-2.132736 0,-2.132736c0,-1.066299 0,-2.132797 0,-2.132797c0,-1.06636 0,-2.13269 0,-3.199112c0,-1.06636 1.066376,-1.06636 4.265411,-1.06636c2.132721,0 5.331894,0 7.4646,0c1.06636,0 3.199142,0 4.265518,0c1.066345,0 2.13269,0 2.13269,0c2.132736,0 3.199112,0 4.265457,0c0,0 0.816208,-2.29509 0,-4.265381c-1.154266,-2.78656 -2.445099,-3.511459 -3.199066,-4.265533c-0.754074,-0.753967 -1.887726,-2.161255 -2.132736,-3.199036c-0.547882,-2.320724 -2.132721,-3.199188 -3.199158,-4.265503c0,0 -0.739441,-1.555634 -2.132706,-2.132736c-0.985138,-0.408112 -2.445084,-1.378708 -3.199081,-2.13269c-0.754059,-0.754013 -0.312363,-1.378769 -1.06636,-2.132736c-0.754059,-0.754089 -1.555649,-0.739532 -2.132813,-2.132736c-0.40802,-0.985199 -0.312256,-1.378708 -1.066345,-2.132797c-0.753967,-0.753983 -1.066345,-1.066315 -1.066345,-1.066315c-1.06636,0 -1.378632,-0.312286 -2.13269,-1.066376c-1.508102,-1.508072 -1.378616,-2.445068 -2.132721,-3.199112c-0.754089,-0.754028 0,-2.13269 -1.066376,-3.199112c-1.06633,-1.06636 -2.132675,-2.132736 -2.132675,-3.199097c0,0 -0.312408,-1.378662 -1.066406,-2.132706c-0.754044,-0.754074 -0.65831,-1.147583 -1.066437,-2.132736c-0.577118,-1.393311 -1.378693,-1.378708 -2.13269,-2.132736c-0.753998,-0.754028 0.753998,-2.445023 0,-3.199112c-0.753998,-0.753967 -1.378754,-0.312286 -2.132721,-1.066376c-0.754089,-0.754013 -1.378754,-0.312332 -2.132782,-1.066299c-0.754013,-0.754089 -1.378662,-1.378769 -2.132721,-2.132736c-0.753983,-0.754105 -1.066376,-1.066391 -2.132721,-1.066391c-1.06636,0 -1.555588,-0.739426 -2.132721,-2.132736c-0.408096,-0.985138 -0.82135,-1.037857 -1.06633,0c-0.547897,2.320663 -1.378738,1.378723 -2.132721,2.132736c-1.508179,1.508072 -0.184601,3.042038 -1.06636,4.265427c-1.394333,1.934448 -1.066376,3.199127 -2.132813,5.331924c-1.06636,2.132675 -2.317307,3.042023 -3.199066,4.265411c-1.394203,1.934402 -3.151283,2.718338 -4.265503,6.398224c-0.30899,1.020523 -1.250885,1.975708 -2.132721,3.199066c-1.394226,1.934326 -2.331062,2.871231 -4.265427,4.265427c-1.223457,0.881821 -2.353264,0.866608 -4.265427,3.199158c-2.437675,2.973343 -2.292068,3.704819 -3.199165,4.265427c-2.028351,1.253571 -2.292,1.572083 -3.199081,2.132736c-2.02832,1.253586 -1.378708,2.445099 -2.132767,3.199097c-0.754005,0.753983 -1.378662,1.378723 -2.132713,2.132767c-0.754005,0.753967 -1.378662,0.312317 -2.132713,1.06636c-0.754082,0.753967 -1.066368,2.132675 -1.066368,3.199081c0,1.06636 0.02858,0.82135 1.066368,1.06636c2.320709,0.547852 3.199059,1.066406 5.331848,1.066406c1.066345,0 2.132713,1.066315 3.199089,1.066315c1.066338,0 1.378738,0.312347 2.132706,1.066376c0.754059,0.753983 1.066345,0 3.199165,0c1.066345,0 2.444977,-0.754028 3.199059,0c0.754089,0.753983 2.132713,1.06636 2.132713,2.13269c0,2.132782 0,5.33197 0,7.464584c0,2.132751 0,4.265472 0,5.331863c0,2.132721 0,3.199051 0,5.331802c0,2.132721 0,2.132721 0,3.199066c0,1.066406 0,2.132767 0,2.132767c0,1.066437 0,2.132751 0,3.199112c0,0 -0.754051,1.378647 0,2.13269c0.754059,0.754028 2.132713,0 4.265434,0c1.066444,0 2.13279,0 3.199158,0c1.066345,0 2.146439,-0.170822 3.199051,0c3.32869,0.540207 7.464584,1.066422 10.663651,1.066422c3.199097,0 4.265533,0 5.331879,0c0,0 0.739426,1.555603 2.132721,2.132751c0.985168,0.408035 1.393265,0.489166 0,1.066284c-0.985153,0.408142 -2.132721,0 -3.199066,0c-1.066437,0 -3.199158,1.066391 -4.265533,1.066391c-2.132706,0 -3.199066,1.06636 -6.398117,1.06636c-1.06636,0 -2.132736,0 -3.199173,0c-2.132736,0 -2.132736,0 -3.199066,0c-1.066345,0 -2.132713,0 -2.132713,0c-1.066345,0 -1.066345,-1.06636 -2.13279,-1.06636c-1.066345,0 -1.378662,0.753983 -2.132721,0c-0.753975,-0.753952 0,-4.265427 0,-7.464539c0,-2.132675 0.518562,-5.143906 1.066376,-7.464661c0.735107,-3.113434 0.518555,-5.143829 1.066345,-7.464478c0.980011,-4.151352 0.531448,-6.332031 1.066444,-12.796387c0.175911,-2.125504 0,-5.331818 0,-5.331818c0,3.199081 0.531342,7.398392 1.066345,13.862732c0.615677,7.439072 0,11.72995 0,14.929138c0,2.132797 0,3.199112 0,4.265472c0,2.13269 -0.21019,1.055908 0,-1.06636c0.535805,-5.41098 3.4226,-11.6698 5.331779,-19.194565c2.417923,-9.529465 3.728348,-13.764496 4.265518,-18.12822c0.26059,-2.116791 1.066376,-2.132751 1.066376,-1.066406c0,3.199127 0,12.796356 0,24.526413c0,5.331802 -1.066376,11.730026 -1.066376,14.929138c0,1.06633 0,2.13269 0,1.06633c0,-8.530991 0.203491,-12.748062 2.132706,-21.327255c1.192917,-5.305038 2.651245,-7.652496 3.199066,-5.331909c1.715042,7.264893 -1.168137,17.03775 -2.132706,21.327362c-1.192917,5.304947 -1.125366,7.462921 -1.06636,6.398163c0.533981,-9.641571 5.810394,-19.007126 8.530945,-26.659103c2.600616,-7.314667 3.717621,-9.785233 4.265411,-7.464569c0.735001,3.113556 -0.530533,8.451797 -1.06636,13.862793c-0.420273,4.24469 0,6.398163 0,5.331802c0,-5.331802 0,-10.663696 0,-14.929138c0,-3.199051 1.537323,-2.008804 0,7.4646c-0.540131,3.328506 -1.06633,5.331787 -1.06633,4.265366c0,-5.331665 0,-9.597275 0,-7.464523c0,3.199158 0,10.663696 0,14.929138c0,3.199066 0,5.331833 0,4.265472c0,-1.066406 -0.126541,-6.425034 1.06633,-11.730087c0.96463,-4.289536 2.132797,-6.398163 2.132797,-5.331665c0,4.265366 1.254288,9.07869 -1.066437,8.530838c-1.037811,-0.244965 0,-3.199173 0,-7.464539c0,-2.132797 1.066437,-6.39827 0,-6.39827c-1.06636,0 0,8.531006 0,13.862808c0,4.265442 -2.13269,8.530914 0,8.530914c1.066437,0 0,-3.199188 0,-7.464554c0,-3.199112 0.85408,-2.063873 0,3.199081c-0.540115,3.328613 -1.805817,8.041611 -3.199036,7.464584c-1.970428,-0.816177 0,-9.597336 0,-11.730026c0,-4.265472 0.489975,-5.27478 0,-3.199173c-1.095703,4.641464 -2.056061,9.182587 -4.265533,11.730087c-1.562271,1.801346 2.132813,-5.331863 -2.132721,-5.331863c-2.132706,0 -2.132706,5.331863 -4.265396,9.597336c-1.066376,2.13269 -2.132721,3.199112 -2.132721,1.06633c0,-8.530991 0.126801,-15.158798 2.132721,-21.327255c0.737335,-2.267654 0.260941,0.140717 -2.132721,4.265366c-1.92984,3.3255 -4.265533,5.331863 -3.199173,5.331863c2.132813,0 0,-4.265442 0,-7.464493c0,-2.132736 0.315231,-4.249939 0,-1.066422c-0.535812,5.411011 -4.265411,10.663666 -2.132736,10.663666c1.066376,0 -0.881233,-10.94043 3.199173,-22.393631c3.524597,-9.893509 3.958282,-22.413406 9.597229,-21.327393c2.094238,0.403351 -5.331772,6.398224 -8.530853,9.597321c-2.132813,2.132751 -2.132813,3.199097 -2.132813,2.132751c0,-2.132751 -0.162827,-5.375931 1.066437,-9.59729c0.94278,-3.237671 2.437546,-1.907028 0,1.066376c-3.824387,4.664993 -5.436218,8.718155 -7.464561,7.464478c-0.907173,-0.560608 1.066345,-6.398178 3.199059,-10.663635c2.132706,-4.265427 7.464584,-7.464493 6.398239,-8.530869c-6.398239,-6.398224 -9.283203,9.966415 -11.730087,11.730026c-1.934372,1.394241 -2.441711,2.086945 -2.132751,1.066299c1.114235,-3.679825 6.767372,-8.216812 8.53093,-10.663635c1.394272,-1.934387 2.091049,-4.305603 1.066376,-3.199112c-6.679955,7.213516 -10.575745,10.009872 -11.730011,12.796448c-0.408112,0.985153 0,0 4.265457,-6.398224c2.13279,-3.199112 5.436211,-7.651794 7.464554,-6.398224c0.907166,0.560654 -2.912369,5.634842 -8.53093,10.663712c-5.087753,4.553741 -9.011284,6.87851 -11.730019,9.597214c-2.718704,2.718689 -3.199081,5.331909 -4.265427,6.398224c-1.066422,1.06636 -2.540825,2.051575 -2.13279,1.06636c1.154274,-2.786499 8.578735,-3.784637 7.464584,-7.464584c-0.308983,-1.02063 -3.199081,4.265549 -6.398216,7.464584c-2.132713,2.132767 -1.066368,3.199173 1.066422,1.066406c2.132713,-2.132767 3.227638,-4.020508 4.265427,-4.265442c2.320732,-0.547852 -0.48922,3.938568 -1.066338,5.331802c-0.408112,0.985168 1.066338,-2.132767 4.265503,-5.331802c2.132713,-2.132767 4.673538,-3.118011 4.265427,-2.132767c-1.154266,2.786514 -2.693367,4.106186 -2.132713,3.199127c1.253555,-2.028366 2.237083,-3.011902 4.265427,-4.265472c0.907066,-0.560654 0.881836,0.909332 0,2.132751c-1.394203,1.934311 -2.132713,2.132721 -1.066368,2.132721c1.066368,0 1.944801,-4.813309 4.265457,-4.265472c1.037872,0.244995 -0.518478,3.011139 -1.066376,5.331787c-0.490005,2.075684 -1.01902,-1.878387 4.265511,-7.464539c3.664101,-3.873322 10.465324,-7.136688 8.530952,-8.530899c-1.22345,-0.881805 -1.477097,2.529434 -4.265533,6.398163c-1.76358,2.446747 -3.199051,4.265488 -2.132706,3.199051c2.132706,-2.132675 3.641968,-5.130463 4.265503,-4.265411c1.97171,2.735611 -5.331848,10.663635 -4.265503,10.663635c1.06633,0 2.573807,-3.865875 6.398239,-8.530899c2.437485,-2.973419 5.479889,-5.578979 5.331772,-3.199066c-0.238907,3.837296 -4.819138,8.059753 -7.464508,11.729965c-1.394302,1.934387 -2.622818,4.208435 -2.132797,2.132767c0.547882,-2.320663 4.486038,-4.065689 6.398254,-6.398209c2.437592,-2.973373 3.453461,0.151276 -1.066376,7.464569c-2.021393,3.270645 -4.593384,5.133408 -3.199081,3.199097c1.76355,-2.446823 7.176239,-8.774994 11.72995,-13.862762c3.017303,-3.371078 5.640915,-5.286041 5.331833,-4.265427c-1.114136,3.679794 -3.960602,6.623825 -6.398209,9.59729c-0.955994,1.166245 -0.985138,2.540787 0,2.132675c1.393341,-0.577087 4.177704,-3.611618 5.331879,-6.398224c0.408096,-0.985153 3.060776,2.287445 -2.132721,8.530991c-2.458771,2.955887 -5.913773,3.783035 2.132721,-5.331802c3.992188,-4.522308 7.273804,-12.477951 10.663635,-10.663666c0.940186,0.503174 0.61969,2.579361 -1.06633,4.265427c-1.68605,1.686127 -2.540848,2.051559 -2.132721,1.066376c1.154266,-2.786575 3.58931,-4.023773 4.265411,-3.199066c3.447296,4.204987 -1.514236,9.366653 -4.265411,12.796326c-1.49205,1.860062 -2.720734,2.05014 -2.132706,0c2.773361,-9.670166 7.77684,-11.417664 8.530807,-10.663635c1.508179,1.508118 0.16217,4.350418 -2.13269,8.53096c-2.992111,5.450653 -3.444061,6.369614 -3.199066,5.331848c0.547806,-2.320709 2.622009,-3.526062 3.199066,-2.132767c1.224228,2.955582 0.188019,6.946014 -2.13269,6.398148c-1.037827,-0.24498 4.177567,-2.545227 5.331757,-5.331787c0.816223,-1.970383 -1.066376,0 0,0c1.066437,0 2.872253,-5.909027 4.265533,-5.331802c0.985123,0.408066 -0.73851,5.530121 -2.132736,7.464523c-1.763565,2.446823 -2.750732,0.974869 -2.132797,-1.066315c1.114243,-3.679901 2.132797,-4.265533 2.132797,-4.265533c0,1.06636 0,3.199127 0,3.199127c1.066376,-1.06636 3.199081,-1.06636 4.265442,-1.06636c1.066345,0 1.066345,0 2.132782,0c1.066376,0 2.113419,0.201691 1.066376,0c-5.639008,-1.085953 -7.4646,-4.265442 -10.663773,-7.464554c-2.13269,-2.132751 -2.872131,-3.688385 -4.265381,-4.265488c-0.985184,-0.408112 -1.378616,-0.312332 -2.132721,-1.06636c-0.754089,-0.753998 0,-1.06633 0,-2.132767c0,-1.066299 -2.044907,-1.478836 -3.199051,-4.265457c-0.408142,-0.985168 -2.622055,-2.872223 -3.199203,-4.265427c-0.408096,-0.985199 -1.555542,-1.805817 -2.132675,-3.199066c-0.408142,-0.985245 0.408096,-2.213898 0,-3.199158c-0.577148,-1.393326 -2.621979,-1.805817 -3.199158,-3.199066c-0.40799,-0.985199 -0.738419,-1.264709 -2.132721,-3.199112c-0.881744,-1.223404 -1.066376,-2.132736 -2.132721,-2.132736c-1.06636,0 -1.06636,-2.132782 -1.06636,-1.06636c0,6.398209 3.199081,12.796432 5.331802,18.128235c2.132782,5.331848 3.199158,5.331848 3.199158,6.398148c0,0 -1.220245,-6.327957 -2.132721,-8.530884c-1.290497,-3.115463 -0.739471,-4.754761 -2.132813,-5.331863c-0.985138,-0.408096 -1.64357,0.749329 -3.199066,4.265533c-1.778641,4.020859 -3.199051,7.464539 -2.132721,7.464539c8.530945,0 0,-14.929169 2.132721,-21.327347c1.066345,-3.199112 1.166275,-5.221542 0,-4.265488c-2.973389,2.437637 -3.303528,5.144638 -5.331772,6.398224c-0.907089,0.560593 0,-2.132736 -1.06636,-2.132736c-1.066376,0 0.19075,5.65036 -3.199173,7.464539c-0.940155,0.503235 -1.005768,-1.009003 0,-2.13269c4.553787,-5.087799 7.464584,-8.53096 10.663651,-11.730011c1.066376,-1.06636 1.19693,0.070404 0,2.132675c-3.859665,6.650925 -8.236572,11.967529 -11.730026,15.99556c-1.976128,2.278519 -3.199043,4.265427 -3.199043,3.199066c0,-2.132751 1.626953,-1.973434 1.066368,-1.06633c-1.253578,2.028336 -3.511452,3.511398 -4.265503,4.265381c-0.754005,0.754089 -1.066376,-1.066315 2.13279,-5.331802c3.199059,-4.265472 3.938515,-8.041733 5.331764,-7.464539c0.985229,0.408051 -2.044891,0.412537 -3.199051,3.199066c-0.408134,0.98526 -2.469986,2.078018 -2.132713,1.06636c1.686043,-5.058212 5.331764,-7.464539 6.398125,-8.530838c1.066437,-1.066437 1.225647,-1.572144 2.132813,-2.132797c2.028275,-1.253647 0.312271,-3.511459 1.06636,-4.265427c0.753983,-0.754089 0.961914,0.879089 -1.06636,2.132675c-0.907166,0.560654 -2.132813,3.199112 -3.199173,4.265549c-2.132706,2.132675 -2.132706,3.199036 -3.199051,3.199036c0,0 -0.821388,0.028564 -1.066368,1.066376c-0.547874,2.320663 -2.13279,3.199066 -3.199135,4.265427c-1.066376,1.066422 -1.37867,1.378708 -2.132751,2.132797c-0.753967,0.753983 -1.147446,0.658218 -2.132706,1.066315c-1.393234,0.577164 -2.622009,1.805801 -3.199059,3.199112c-0.408112,0.985153 0.408028,1.147537 0,2.13269c-0.577118,1.393311 -1.378738,2.445084 -2.132713,3.199158c-0.754082,0.753983 -2.132797,1.066376 -2.132797,2.132675c0,1.066437 -1.378738,0.312424 -2.132706,1.066437c-0.753983,0.753983 -0.312378,1.378662 -1.066376,2.13269c-0.754051,0.754089 0.441719,1.69104 -1.066368,3.199051c-0.754059,0.754074 -1.066345,1.066437 -2.132767,2.132782c0,0 -1.066368,0 -1.066368,1.066406c0,1.06636 -0.489227,1.805786 -1.066345,3.199036c-0.408028,0.98526 1.938255,0.598618 11.730095,-3.199036c9.431808,-3.658188 16.542442,-5.96524 18.128212,-8.53093c1.772842,-2.868546 3.117859,-4.923843 2.132736,-5.331894c-1.39328,-0.577042 -10.977249,11.161896 -13.862839,18.12822c-0.40799,0.985214 -0.609673,-0.451401 4.265541,-6.398148c5.73658,-6.997559 11.928368,-11.402176 13.862709,-12.796448c2.446838,-1.763519 2.184067,-1.03154 0,2.132797c-5.2108,7.549545 -6.398148,8.530899 -6.398148,10.663651c0,1.066345 0.162338,1.882523 2.132736,1.066345c2.786514,-1.154266 4.265411,-2.132782 4.265411,-2.132782c0,1.066437 0,5.331909 0,7.464584c0,1.066406 0,1.066406 1.06636,1.066406c3.199066,0 4.265442,-1.066406 6.398224,-1.066406c1.066376,0 2.132721,1.066406 2.132721,7.464554c0,7.464584 -2.469986,11.675369 -2.132721,10.663635c1.68605,-5.058167 4.577805,-7.152145 5.331848,-6.398163c0.753998,0.754074 0,6.398163 0,8.530975c0,1.06636 -0.835434,-1.212982 1.066406,-9.597336c1.491852,-6.577209 2.132675,-5.331802 2.132675,-4.265442c0,3.199112 -0.170822,7.450867 0,6.3983c0.540146,-3.328751 2.872162,-10.1745 4.265427,-9.597351c0.98526,0.408035 -0.739456,3.776138 -2.132706,3.199051c-0.985245,-0.408157 0,-3.199051 1.066376,-3.199051c1.06633,0 2.13269,0 4.265381,0c1.066376,0 3.511459,0.753983 4.265549,0c1.508057,-1.508102 0.312363,-3.511459 1.06636,-4.265533c0.753983,-0.753967 2.66333,0.079178 3.199051,-5.331787c0.210205,-2.122314 0,-3.199112 0,-1.066437c0,1.066437 -2.132706,8.530991 0,8.530991c1.066437,0 0,-2.132767 1.066437,-2.132767c1.066376,0 3.170563,0.82135 2.132721,1.06636c-2.320709,0.547913 -4.265503,-5.331802 -6.398209,-7.464584c-2.132736,-2.132675 -3.511444,-3.511383 -4.265533,-4.265411c-0.753998,-0.753998 -1.147461,-0.658264 -2.132721,-1.06633c-1.39325,-0.577209 -2.213806,-0.65831 -3.199036,-1.066437c-1.393295,-0.577133 -4.265427,-1.066299 -6.398178,-1.066299c-3.199127,0 -4.577881,0.753967 -5.331848,0c-0.754089,-0.754089 -1.724609,-2.213913 -2.132782,-3.199158c-1.154205,-2.78653 -2.132721,-3.199066 -2.132721,-4.265427c0,-1.06633 -1.378647,-2.445084 -2.132721,-3.199066c-0.753998,-0.754089 -1.646194,2.35408 -4.265427,7.464493c-6.341675,12.373245 -9.1166,19.242401 -12.796432,18.12822c-1.020599,-0.30899 -1.066376,-1.06636 -1.066376,-2.132675c0,-1.06636 -0.312294,-2.886765 -1.066376,-2.132721c-0.753967,0.753967 0,2.132721 0,2.132721c0,-2.132721 0.245026,-4.236938 0,-3.199127c-1.095673,4.641312 -2.872139,8.041718 -4.265419,7.464569c-0.985237,-0.408066 1.47702,-13.1931 4.265419,-17.061829c2.645363,-3.670273 4.754776,-4.592484 5.331886,-3.199158c3.672737,8.86676 0,18.12822 0,24.526443c0,3.199112 0,4.265442 1.066368,4.265442c1.066345,0 0.439255,-3.886581 4.265411,-4.265442c1.500748,-0.148575 1.066437,12.796387 1.066437,14.929138c0,2.13269 0,3.199051 0,2.13269c0,-1.06633 0,-2.13269 0,0c0,3.199036 0.18457,4.422562 1.066376,3.199036c1.394119,-1.934265 3.960602,-6.623886 6.398132,-9.597198c1.912247,-2.33252 2.132721,-1.06633 2.132721,1.066299c0,5.331863 -2.132721,9.597336 0,9.597336c1.066345,0 0.394073,-6.649063 4.265503,-15.995499c1.824951,-4.405853 3.688293,-7.791412 4.265411,-6.398163c2.856598,6.896347 -1.805817,20.838058 -3.199036,20.260941c-1.970428,-0.816162 1.269226,-5.205475 3.199036,-8.530914c1.196838,-2.062347 2.132843,0 2.132843,2.132721c0,1.066391 0,2.132751 0,3.199112c0,1.06633 0,2.13269 0,3.199081c0,3.199066 1.555527,3.52594 2.132675,2.132721c0.816147,-1.970352 0.518494,-3.387085 1.066376,-1.066437c0.735016,3.113571 -1.539352,7.87056 -3.199051,13.862808c-0.569427,2.055389 -1.90184,0.919754 0,-7.464508c2.237732,-9.865829 3.483643,-10.625 3.199051,-9.597336c-1.65976,5.992325 -3.511459,5.64418 -4.265457,6.398224c-0.754044,0.754013 0,2.132797 0,3.199112c0,2.13269 -1.066437,5.331833 -1.066437,6.398224c0,1.066284 -1.595505,1.164688 -2.13269,-3.199173c-0.260605,-2.116699 0,-3.199051 -1.066345,-3.199051c-1.066376,0 -1.804886,1.264694 -3.199158,3.199051c-0.88176,1.22345 -2.65123,2.320648 -3.199097,0c-1.22493,-5.189148 0,-7.464569 -1.066345,-7.464569c-1.06636,0 -4.265427,4.265518 -6.398132,6.398209c-1.066376,1.06636 -2.132813,1.06636 -2.132813,-1.06633c0,-2.132675 -1.225632,-3.75975 -2.132736,-3.199112c-2.028328,1.253586 -1.06633,1.066437 -1.06633,-2.132767c0,-1.066345 0,0 0,2.132767c0,1.066437 0.413956,-1.895035 6.398239,-12.796448c4.589722,-8.360947 6.714859,-15.583649 9.597214,-18.128189c1.787613,-1.578033 2.132782,-2.132675 2.132782,-4.265396c0,-2.132751 -0.441711,-4.890121 1.066376,-6.398239c0.753983,-0.754028 1.066345,1.066376 1.066345,2.132736c0,4.265503 -0.044327,5.330887 0,4.265503c0.5336,-12.829712 3.199127,-21.327316 3.199127,-20.261002c0,4.265488 1.066406,6.398178 1.066406,5.331802c0,-1.066315 -0.98526,-2.791 0,-3.199051c1.393219,-0.577148 1.825531,18.147812 7.464462,17.061844c1.047134,-0.201691 -1.45105,-14.092133 -4.265411,-21.327286c-0.864441,-2.222275 -2.798798,-0.940521 -1.066376,6.398178c0.774826,3.281937 1.525391,1.990906 0,-2.132736c-3.309174,-8.94545 -5.644211,-10.351364 -6.398209,-9.59729c-0.753998,0.754089 2.948837,3.036667 2.13269,1.06633c-0.577118,-1.393265 -2.871216,-3.397476 -4.265411,-5.331741c-0.881729,-1.223526 -1.066345,-2.132797 -1.066345,-1.066437c0,3.199112 1.170715,7.277328 3.199066,8.530914c0.907043,0.560699 1.993347,-1.203674 1.06633,-4.265442c-1.114136,-3.679825 -4.754654,-5.004959 -5.331833,-6.398254c-0.40799,-0.985107 0,4.265518 0,19.194656c0,7.464584 4.265503,1.066315 0,1.066315c-2.132721,0 1.205963,11.685257 3.199158,18.128235c2.294312,7.416458 2.132675,6.398224 2.132675,-3.199036c0,-9.597366 0,-6.398239 0,-3.199188c0,6.398224 -1.508041,11.288376 0,12.796448c0.75412,0.753983 1.06636,-1.066376 1.06636,-3.199097c0,-1.06636 1.066437,-2.132767 1.066437,-1.06636c0,4.265457 0,7.464508 0,9.59726c0,1.06636 -0.666077,-0.125916 1.066406,-7.464493c0.774689,-3.281998 2.165588,3.424774 -6.398254,9.597351c-1.934357,1.394104 -2.132782,-1.066498 -2.132782,-22.393784c0,-12.796387 -1.157822,-15.54718 -3.199097,-14.929138c-3.679855,1.114182 -4.677963,6.486038 -7.464478,5.331802c-0.985245,-0.408005 -0.735123,-2.218277 0,-5.331802c0.547791,-2.320709 3.271988,-3.120804 2.132706,-2.13269c-4.027985,3.493454 -4.265518,3.199112 -5.331879,3.199112c-1.066376,0 -1.066376,3.199066 -3.199051,4.265381l0,1.066376" id="svg_34" stroke-width="5" stroke="#ff7f00" fill="#ff7f00"/>
  <path d="m475,341c0,2 -2,10 -2,12c0,1 -1,4 -1,6c0,1 -0.61731,1.076111 -1,2c-0.541199,1.306549 -2.458801,1.693451 -3,3c-0.38269,0.923889 -1.458801,1.693451 -2,3c-0.38269,0.923889 -0.770233,2.026764 -1,3c-0.513733,2.176239 -2.458801,1.693451 -3,3c-0.765381,1.847748 -1,4 -2,5c-1,1 -2.61731,2.076111 -3,3c-1.082397,2.613129 -1.61731,3.076111 -2,4c-0.541199,1.306549 -2.458801,0.693451 -3,2c-0.38269,0.923889 -0.458801,1.693451 -1,3c-0.38269,0.923889 -1.149353,1.474274 -2,2c-1.9021,1.175568 -1.118317,2.528137 -2,3c-3.178925,1.701294 -3.458801,3.693451 -4,5c-0.38269,0.923889 -1.292908,1.292908 -2,2c-0.707092,0.707092 -0.474274,1.149353 -1,2c-1.175568,1.9021 -2,2 -3,2c-1,0 -1,1 -2,1c-1,0 -1.458801,0.693451 -2,2c-0.38269,0.923889 -0.292908,1.292908 -1,2c-0.707092,0.707092 1.026764,1.770233 2,2c2.176239,0.513733 3.693451,2.458801 5,3c0.923889,0.38269 2,1 2,1c0,1 1,1 2,1c1,0 1.292908,0.292908 2,1c0.707092,0.707092 0.292908,2.292908 1,3c0.707092,0.707092 1,2 2,2c1,0 1.292908,0.292908 2,1c1.414215,1.414215 -0.414215,3.585785 1,5c0.707092,0.707092 1.292908,0.292908 2,1c0.707092,0.707092 0.292908,1.292908 1,2c0.707092,0.707092 1.292908,2.292908 2,3c0.707092,0.707092 1,1 3,1c0,0 1,0 2,-1c1,-1 3.173096,-1.852722 4,-3c1.307465,-1.813995 3.292908,-3.292908 4,-4c0.707092,-0.707092 0.0979,-2.824432 2,-4c0.850647,-0.525726 1.292908,-0.292908 2,-1c1.414215,-1.414215 0.292908,-2.292908 1,-3c0.707092,-0.707092 -0.051453,-1.298706 1,-3c1.175568,-1.9021 3,-2 4,-3c1,-1 1,-2 2,-3c1,-1 1.026764,-1.770233 2,-2c2.176239,-0.513733 2.292908,-3.292908 3,-4c0.707092,-0.707092 2.458801,-0.693451 3,-2c0.38269,-0.923889 0.692535,-2.186005 2,-4c0.826904,-1.147278 1.186005,-2.692535 3,-4c1.147278,-0.826904 1.770233,-4.026764 2,-5c0.513733,-2.176239 1.770233,-3.026764 2,-4c0.513733,-2.176239 0.292908,-2.292908 1,-3c0.707092,-0.707092 3,-4 3,-4c0,-1 1,-1 1,-2c0,-1 0.61731,-2.076111 1,-3c0.541199,-1.306549 1,-2 1,-3c0,-2 -0.707092,-3.292908 0,-4c0.707092,-0.707092 1,-1 1,-2c0,-1 0,-1 0,-2c0,-1 1,-3 1,-4c0,0 0.292908,-1.292908 1,-2c0.707092,-0.707092 1,-2 1,-3c0,-1 0.292908,-1.292908 1,-2c0.707092,-0.707092 -1,-1 -2,-1c-1,0 -2,0 -3,0c0,0 0,-1 -1,-1c-1,0 -2.076111,-0.61731 -3,-1c-1.306549,-0.541199 -2,-1 -3,-1c-1,0 -1,0 -2,0c-1,0 -2,0 -2,0c-1,0 -1,-1 -2,-1c-1,0 -1,-1 -2,-1c-1,0 -0.292908,-0.292908 -1,-1c-0.707092,-0.707092 -2.292908,0.707092 -3,0c-0.707092,-0.707092 -1,-1 -1,-1c-1,0 -2,0 -2,0c-1,0 -1.540497,1.053497 -2,3c-0.513733,2.176239 -2.360962,7.142212 -4,13c-1.45105,5.185974 -4.95517,8.549164 -6,12c-0.869354,2.871277 -0.692535,5.186005 -2,7c-0.826904,1.147278 -1.076111,1.61731 -2,2c-1.306549,0.541199 -0.693451,3.541199 -2,3c-1.847748,-0.765381 3.077637,-5.558014 7,-11c2.480713,-3.441803 5.346191,-5.705475 7,-8c1.307465,-1.813995 2,-4 3,-5c1,-1 1.337494,-1.309998 3,-4c0.7435,-1.203003 1,-2 2,-3c1,-1 3,-2 2,-2c-1,0 -0.167969,1.920349 -2,6c-2.206055,4.912567 -4,8 -7,14c-1,2 -2,3 -3,5c-1,2 -4,4 -5,5c-2,2 -0.926605,2.068359 0,1c3.276001,-3.777283 5.968536,-6.412079 8,-10c0.696777,-1.230652 1.292908,-0.292908 2,-1c0.707092,-0.707092 1.692535,-3.186005 3,-5c2.480713,-3.441803 5,-6 7,-8c1,-1 2.076111,-1.61731 3,-2c1.306549,-0.541199 0.809723,0.881531 -1,4c-1.122345,1.93399 -4,7 -6,10c-2,3 -4.714111,7.21167 -7,10c-1.793182,2.187347 -6,6 -8,8c-2,2 -2.412048,3.921783 -1,4c6.393341,0.354095 8.723999,-7.222717 12,-11c2.779785,-3.205109 5.418854,-5.256592 7,-10c0.316223,-0.948669 1.292908,-0.292908 2,-1c1.414215,-1.414215 0.292908,-1.292908 1,-2c0.707092,-0.707092 1.486267,-1.823761 2,-4c0.229767,-0.973236 -0.414215,-1.585785 1,-3c0.707092,-0.707092 1.292908,-0.292908 2,-1c0.707092,-0.707092 0.292908,-1.292908 1,-2c0.707092,-0.707092 1.292908,-1.707092 2,-1c0.707092,0.707092 0,1 0,2c0,1 0,2 0,4c0,2 -0.234619,4.152252 -1,6c-0.541199,1.306549 -1.540497,2.053497 -2,4c-0.513733,2.176239 -1,4 -2,6c-1,2 -2.376404,2.080322 -4,6c-0.38269,0.923889 -1.458801,2.693451 -2,4c-0.38269,0.923889 -1.415894,2.761078 -3,6c-1.389343,2.840729 -1.337494,5.309998 -3,8c-0.7435,1.203003 -1.692535,3.186005 -3,5c-0.826904,1.147278 -2.323669,1.520172 -4,3c-2.703003,2.386169 -3.076111,4.61731 -4,5c-1.306549,0.541199 -0.693451,2.458801 -2,3c-0.923889,0.38269 -0.653809,-0.705475 1,-3c3.922363,-5.441986 4,-8 6,-10c2,-2 3.793945,-5.087433 6,-10c1.832031,-4.079651 4.692535,-12.186005 6,-14c0.826904,-1.147278 1.234619,-2.152252 2,-4c0.541199,-1.306549 0.188843,1.138824 -5,8c-3.862305,5.107117 -7.194092,8.88855 -10,14c-2.152039,3.920288 -4,6 -5,7c-1,1 -1.869354,-0.128723 -1,-3c3.134491,-10.352539 16.376404,-24.080322 18,-28c0.765381,-1.847748 -1.249146,-1.971252 -8,8c-5.014404,7.406464 -7,12 -9,15c-2,3 -2.693451,4.458801 -4,5c-0.923889,0.38269 -1.082489,-3.003418 -1,-4c0.501709,-6.062042 1.692535,-9.186005 3,-11c0.826904,-1.147278 0.586395,-0.374695 -3,4c-4.571747,5.57666 -7,10 -8,11c-1,1 -1.24762,-4.088287 1,-10c2.706512,-7.118622 4.386871,-14.082397 7,-13c0.923889,0.38269 -3,6 -5,9c-2,3 -5,5 -4,5c3,0 -1.530731,-4.304474 0,-8c1.082397,-2.613129 1.961426,0.116394 -3,7c-1.307465,1.813995 -1,3 -1,2c0,-4 2.365997,-8.773346 3,-8c3.232727,3.943298 -3.648865,11.19577 -6,15c-2.628662,4.253265 -3,5 -3,4c0,-1 1,-4 0,-4c-1,0 -2.346191,3.705475 -4,6c-1.307465,1.813995 -1.693451,4.541199 -3,4c-0.923889,-0.38269 1.346191,-3.705475 3,-6c1.307465,-1.813995 2.292908,-4.707092 3,-4c0.707092,0.707092 -0.385101,4.372009 -3,8c-0.826904,1.147278 0.19577,-0.891724 4,-8c1.055115,-1.971497 2,-4 2,-3c0,2 -1.458801,3.693451 -2,5c-0.765381,1.847748 0.693451,1.541199 2,1c0.923889,-0.38269 2,0 2,2c0,1 -1.486267,2.823761 -2,5c-0.229767,0.973236 0.206818,0.187347 2,-2c2.285889,-2.78833 3.292908,-4.707092 4,-4c0.707092,0.707092 0.68927,3.080261 0,6c-1.027496,4.352509 -2.560333,2.563751 3,-4c2.74234,-3.237213 5.229767,-3.973236 5,-3c-1.027496,4.352509 -2.458801,4.693451 -3,6c-0.38269,0.923889 -0.292908,1.292908 -1,2c-0.707092,0.707092 -1.236053,-3 1,-3c2.236053,0 1.459503,4.053497 1,6c-0.513733,2.176239 -3,5 -2,5c2,0 0.692535,-3.186005 2,-5c1.653809,-2.294525 1.502441,-0.074219 1,5c-0.098541,0.995148 -0.292908,2.707092 -1,2c-0.707092,-0.707092 2,-5 4,-8c2,-3 2.458801,-5.306549 3,-4c0.38269,0.923889 0.406006,3.504333 -2,8c-0.667297,1.246887 -1.292908,1.292908 -2,2c-2.121307,2.121307 -1.458801,5.693451 -2,7c-0.765381,1.847748 -1,2 -2,2c0,0 -1,0 -1,0c-1,0 -1.292908,-0.292908 -2,-1c-0.707092,-0.707092 -0.337494,-1.309998 -2,-4c-0.7435,-1.203003 -5,-3 -6,-4c-1,-1 -0.923889,-1.38269 0,-1c3.919678,1.623596 6,5 6,5c0,0 0,-4 0,-9c0,-2 0,-4 0,-3c0,3 -0.149353,4.525726 -1,4c-1.9021,-1.175568 -1.418854,-3.418854 -3,-5c-1.581146,-1.581146 -2,0 -2,1c0,1 -1.346191,1.294525 -3,-1c-1.307465,-1.813995 -1,-1 -1,0c0,0 -0.203003,0.7435 1,0c5.379974,-3.325012 8,-2 12,-2c6,0 10,0 13,0c1,0 1.707092,1.292908 1,2c-1.414215,1.414215 -3.95517,0.549164 -5,4c-0.289795,0.957092 -0.458801,1.693451 -1,3c-0.765381,1.847748 -0.770233,3.026764 -1,4c-0.513733,2.176239 -1,3 -2,3c0,0 -0.292908,0.292908 -1,1c-0.707092,0.707092 0,2 0,0c0,-3 0,-14 3,-26c4,-16 7.568695,-25.782745 10,-33c1.316284,-3.907349 1,-6 1,-8c0,-1 0,-3 0,-6c0,-2 -0.38269,-3.076111 0,-4c0.541199,-1.306549 -1.486267,-1.823761 -2,-4c-0.229767,-0.973236 -1,-1 -2,-1c0,0 -1,0 -1,1c0,1 -0.61731,3.076111 -1,4c-0.541199,1.306549 -1,1 -1,2c0,1 -1.486267,2.823761 -2,5c-0.229767,0.973236 0,2 0,2c0,1 -1,1 -1,2c0,1 -0.234619,1.152252 -1,3c-0.541199,1.306549 -1.292908,1.292908 -2,2c-0.707092,0.707092 0.707092,2.292908 0,3c-0.707092,0.707092 -1.292908,-0.707092 -2,0c-0.707092,0.707092 -0.292908,1.292908 -1,2c-0.707092,0.707092 0,2 -1,2c0,0 -1,1 -1,2c0,0 0,1 -1,1l0,1" id="svg_45" stroke-width="8" stroke="#bf0000" fill="none"/>
  <path d="m481,343c-1,0 -1.693451,-0.458801 -3,-1c-0.923889,-0.38269 -1,-1 -2,-1c-1,0 -2,-2 -2,-1c0,1 2,0 2,0c1,0 1.693451,0.458801 3,1c0.923889,0.38269 1,1 2,1c1,0 1.076111,0.61731 2,1c1.306549,0.541199 0.292908,1.292908 1,2c0.707092,0.707092 2.292908,-0.707092 3,0c0.707092,0.707092 1,1 1,1c1,1 2.292908,0.292908 3,1c0.707092,0.707092 1.292908,0.292908 2,1c0.707092,0.707092 1.292908,0.292908 2,1c0.707092,0.707092 2.458801,1.693451 3,3c0.38269,0.923889 0,2 0,2c0,1 0,3 0,4c0,0 0,1 -1,1c-1,0 -2,0 -2,0c-1,-1 -2,-1 -3,-1c-2,0 -3.186005,0.307465 -5,-1c-1.147278,-0.826904 -1.474274,-2.149353 -2,-3c-1.175568,-1.9021 -2.292908,-1.292908 -3,-2c-0.707092,-0.707092 -0.292908,-1.292908 -1,-2c-1.414215,-1.414215 -2,-1 -2,-1c-2,0 -3,-2 -3,-3c0,-1 -1,-1 -1,-2c0,-1 1,-1 1,-1c1,0 2.106995,-0.919006 6,0c2.176239,0.513733 4.186005,1.692535 6,3c1.147278,0.826904 0.693451,2.458801 2,3c0.923889,0.38269 1.292908,0.292908 2,1c0.707092,0.707092 2.292908,1.292908 3,2c0.707092,0.707092 1.693451,1.458801 3,2c0.923889,0.38269 1.292908,0.292908 2,1c0.707092,0.707092 1.292908,1.292908 2,2c1.414215,1.414215 0,4 0,6c0,1 -1.149353,1.474274 -2,2c-1.9021,1.175568 -1.026764,3.770233 -2,4c-2.176239,0.513733 -1,-13 -1,-17c0,-2 1,-3 1,5c0,5 -2.434631,13.15097 -5,15c-0.811249,0.584717 -1,0 -2,0c-1,0 -3,0 -7,0c-4,0 -19.222717,4.723999 -23,8c-4.273499,3.70639 -5,5 -5,6c0,1 -1,3 -2,5c-1,2 -1,3 -2,4c-1,1 -2.173096,2.852722 -3,4c-1.307465,1.813995 -1,3 -3,5c0,0 -0.292908,0.292908 -1,1c-0.707092,0.707092 -2.292908,1.292908 -3,2c-0.707092,0.707092 -1.186005,0.692535 -3,2c-1.147278,0.826904 -2.292908,1.292908 -3,2c-0.707092,0.707092 0,1 0,2c0,1 -1,2 -1,3c0,0 -0.306549,1.458801 1,2c1.847748,0.765381 2.292908,0.292908 3,1c0.707092,0.707092 0.292908,1.292908 1,2c0.707092,0.707092 2.292908,-0.707092 3,0c0.707092,0.707092 -0.707092,1.292908 0,2c0.707092,0.707092 0.292908,1.292908 1,2c0.707092,0.707092 1.292908,0.292908 2,1c0.707092,0.707092 0.292908,1.292908 1,2c0.707092,0.707092 1,1 2,1c1,0 2,0 2,0l1,1l1,0" id="svg_46" stroke-width="8" stroke="#bf0000" fill="none"/>
  <text transform="rotate(-64.0312, 480.657, 374.367) matrix(1.52, -9.07653e-08, 9.07653e-08, 1.52, -259.295, -188.217)" xml:space="preserve" text-anchor="middle" font-family="Sans-serif" font-size="24" id="svg_42" y="376.698308" x="486.80946" stroke-width="0" stroke="#ffffff" fill="#ffffff">bjj</text>
  <text transform="rotate(-51.6267, 461.672, 406.326) matrix(1.71884, 2.85765e-08, -2.85765e-08, 1.71884, -191.999, -266.785)" xml:space="preserve" text-anchor="middle" font-family="Sans-serif" font-size="24" id="svg_32" y="398.006059" x="380.007561" stroke-width="0" stroke="#ffffff" fill="#ffffff">r/</text>
 </g>
</svg>