<?xml version="1.0" encoding="UTF-8"?>
<svg width="612" height="792" xmlns="http://www.w3.org/2000/svg">
 <g>
  <title>Layer 1</title>
  <circle id="svg_37" r="234.871094" cy="296.999983" cx="315.999982" stroke-width="0.5" stroke="#000000" fill="#ffffff"/>
  <circle id="svg_1" r="183.703125" cy="295.499995" cx="315.499996" stroke-width="42" stroke="#000000" fill="#c1e0ff"/>
  <g id="Layer_2">
   <g>
    <g>
     <g>
      <path d="m787.450684,298.674377c12.82251,0 23.213745,12.538177 23.213745,28.017609c0,15.477234 -10.391235,28.014709 -23.213745,28.014709c-12.821045,0 -23.202759,-12.537476 -23.202759,-28.014709c-0.000732,-15.479431 10.381714,-28.017609 23.202759,-28.017609z" fill="#FFFFFF"/>
     </g>
     <g>
      <path d="m787.450684,357.600067c-14.389954,0 -26.096924,-13.863373 -26.096924,-30.908081c0,-17.046875 11.70697,-30.911713 26.096924,-30.911713c14.396484,0 26.106323,13.864838 26.106323,30.911713c0,17.044708 -11.71051,30.908081 -26.106323,30.908081l0,0zm0,-56.032318c-11.199219,0 -20.310181,11.268127 -20.310181,25.124237c0,13.852478 9.110962,25.120605 20.310181,25.120605c11.204285,0 20.321045,-11.268127 20.321045,-25.120605c-0.000671,-13.85611 -9.116699,-25.124237 -20.321045,-25.124237l0,0z" fill="#1E1D1D"/>
     </g>
    </g>
    <g>
     <g>
      <g>
       <g>
        <path d="m750.925659,383.873199c0.333618,-1.042297 0.56427,-2.112152 0.56427,-3.235718c0,-7.15979 -7.163391,-12.964661 -15.997314,-12.964661c-8.833191,0 -15.991516,5.804871 -15.991516,12.964661c0,1.123566 0.232117,2.19342 0.563599,3.235718h30.860962l0,0z" fill="#FFFFFF"/>
       </g>
      </g>
     </g>
     <g>
      <g>
       <g>
        <path d="m750.925659,386.765137h-30.860229c-1.262085,0 -2.376221,-0.81601 -2.759155,-2.011353c-0.47583,-1.503632 -0.697144,-2.812866 -0.697144,-4.116302c0,-8.749023 8.471313,-15.860229 18.884216,-15.860229c10.415833,0 18.889954,7.111938 18.889954,15.860229c0,1.309235 -0.223389,2.619202 -0.701416,4.120636c-0.384399,1.195374 -1.498535,2.007019 -2.756226,2.007019l0,0zm-28.517395,-5.785278h26.175964c0.007202,-0.116791 0.013062,-0.231384 0.013062,-0.343079c0,-5.556091 -5.878174,-10.072754 -13.103943,-10.072754c-7.222229,0 -13.098145,4.516663 -13.098145,10.072754c0,0.111694 0.005066,0.226288 0.013062,0.343079l0,0z" fill="#1E1D1D"/>
       </g>
      </g>
     </g>
    </g>
    <g>
     <g>
      <g>
       <g>
        <path d="m806.93689,383.873199c0.33728,-1.042297 0.567932,-2.112152 0.567932,-3.235718c0,-7.15979 -7.164124,-12.964661 -16.000183,-12.964661c-8.831665,0 -15.987915,5.804871 -15.987915,12.964661c0,1.123566 0.230713,2.19342 0.564331,3.235718h30.855835l0,0z" fill="#FFFFFF"/>
       </g>
      </g>
     </g>
     <g>
      <g>
       <g>
        <path d="m806.93689,386.765137h-30.855103c-1.259155,0 -2.372559,-0.811646 -2.757019,-2.007751c-0.477234,-1.500702 -0.702148,-2.811401 -0.702148,-4.120605c0,-8.749023 8.471985,-15.86026 18.882019,-15.86026c10.419434,0 18.892822,7.111938 18.892822,15.86026c0,1.309204 -0.225586,2.619171 -0.70282,4.120605c-0.385193,1.196106 -1.497131,2.007751 -2.757751,2.007751l0,0zm-28.515137,-5.785278h26.175903c0.007263,-0.116791 0.013062,-0.231384 0.013062,-0.343079c0,-5.556091 -5.880249,-10.072754 -13.105347,-10.072754c-7.220764,0 -13.09668,4.516663 -13.09668,10.072754c0,0.111694 0.005066,0.226288 0.013062,0.343079l0,0z" fill="#1E1D1D"/>
       </g>
      </g>
     </g>
    </g>
    <g>
     <g>
      <path d="m719.784668,239.433167c0,7.854675 -6.369141,14.217316 -14.223877,14.217316c-7.852417,0 -14.213623,-6.361908 -14.213623,-14.217316c0,-7.856873 6.361938,-14.222412 14.213623,-14.222412c7.854736,-0.000732 14.223877,6.36554 14.223877,14.222412z" fill="#FFFFFF"/>
     </g>
     <g>
      <path d="m705.561584,256.542389c-9.43158,0 -17.107117,-7.674072 -17.107117,-17.109222c0,-9.43811 7.675537,-17.115051 17.107117,-17.115051c9.439514,0 17.116516,7.676941 17.116516,17.115051c0,9.435181 -7.677734,17.109222 -17.116516,17.109222l0,0zm0,-28.436096c-6.241516,0 -11.320374,5.081726 -11.320374,11.326874c0,6.242249 5.078857,11.32251 11.320374,11.32251c6.24585,0 11.330505,-5.080261 11.330505,-11.32251c-0.000732,-6.24588 -5.084595,-11.326874 -11.330505,-11.326874l0,0z" fill="#1E1D1D"/>
     </g>
    </g>
    <g>
     <g>
      <path d="m836.087524,239.433167c0,7.854675 -6.370667,14.217316 -14.22168,14.217316s-14.213745,-6.361908 -14.213745,-14.217316c0,-7.856873 6.361938,-14.222412 14.213745,-14.222412s14.22168,6.36554 14.22168,14.222412z" fill="#FFFFFF"/>
     </g>
     <g>
      <path d="m821.865845,256.542389c-9.432312,0 -17.109314,-7.674072 -17.109314,-17.109222c0,-9.43811 7.677002,-17.115051 17.109314,-17.115051c9.438049,0 17.11499,7.676941 17.11499,17.115051c-0.000732,9.435181 -7.677673,17.109222 -17.11499,17.109222l0,0zm0,-28.436096c-6.243042,0 -11.321838,5.081726 -11.321838,11.326874c0,6.242249 5.078796,11.32251 11.321838,11.32251c6.247314,0 11.328979,-5.080261 11.328979,-11.32251c0,-6.24588 -5.081665,-11.326874 -11.328979,-11.326874l0,0z" fill="#1E1D1D"/>
     </g>
    </g>
    <g>
     <g>
      <path d="m764.247192,218.768311c-0.287964,0 -0.583862,-0.04425 -0.874023,-0.136368c-1.523926,-0.483063 -2.369019,-2.107834 -1.886597,-3.633224l10.44989,-33.035477c0.455505,-1.442688 1.948242,-2.310928 3.42218,-1.943909l28.436829,6.694138c1.55658,0.36412 2.522034,1.922882 2.153503,3.477997c-0.364136,1.557312 -1.903992,2.547379 -3.47937,2.152817l-25.824219,-6.076889l-9.639771,30.478683c-0.390259,1.23378 -1.531128,2.022232 -2.758423,2.022232l0,0z" fill="#1E1D1D"/>
     </g>
    </g>
    <g>
     <g>
      <path d="m739.574097,298.674377c12.821045,0 23.209351,12.538177 23.209351,28.017609c0,15.477234 -10.388306,28.014709 -23.209351,28.014709c-12.818848,0 -23.205688,-12.537476 -23.205688,-28.014709c0,-15.479431 10.386841,-28.017609 23.205688,-28.017609z" fill="#FFFFFF"/>
     </g>
     <g>
      <path d="m739.574097,357.600067c-14.390686,0 -26.099121,-13.863373 -26.099121,-30.908081c0,-17.046875 11.708435,-30.911713 26.099121,-30.911713c14.393555,0 26.101257,13.864838 26.101257,30.911713c0,17.044708 -11.708435,30.908081 -26.101257,30.908081l0,0zm0,-56.032318c-11.199219,0 -20.31311,11.268127 -20.31311,25.124237c0,13.852478 9.113159,25.120605 20.31311,25.120605c11.202148,0 20.315979,-11.268127 20.315979,-25.120605c-0.000732,-13.85611 -9.113831,-25.124237 -20.315979,-25.124237l0,0z" fill="#1E1D1D"/>
     </g>
    </g>
    <g>
     <g>
      <path d="m825.947266,191.829269c0,6.187866 -5.019348,11.207199 -11.204285,11.207199c-6.199463,0 -11.211548,-5.019333 -11.211548,-11.207199c0,-6.193649 5.012085,-11.207901 11.211548,-11.207901c6.184998,-0.000015 11.204285,5.014252 11.204285,11.207901z" fill="#FFFFFF"/>
     </g>
     <g>
      <path d="m814.742249,205.929108c-7.777771,0 -14.105652,-6.327118 -14.105652,-14.099838c0,-7.777054 6.328613,-14.10199 14.105652,-14.10199c7.774841,0 14.097656,6.325653 14.097656,14.10199c0,7.773438 -6.322815,14.099838 -14.097656,14.099838l0,0zm0,-22.414368c-4.587036,0 -8.320374,3.730423 -8.320374,8.314529c0,4.58197 3.732666,8.31311 8.320374,8.31311c4.582703,0 8.311646,-3.73114 8.311646,-8.31311c0.000061,-4.584122 -3.72821,-8.314529 -8.311646,-8.314529l0,0z" fill="#1E1D1D"/>
     </g>
    </g>
    <g>
     <g>
      <g>
       <g>
        <path d="m755.53949,383.886993h15.734741c13.968567,-7.268585 24.330017,-33.358246 24.330017,-64.513672c0,-36.782562 -14.418274,-66.594666 -32.197754,-66.594666c-17.784546,0 -32.197021,29.812805 -32.197021,66.594666c0.000732,31.155426 10.355713,57.245819 24.330017,64.513672z" fill="#FFFFFF"/>
       </g>
      </g>
     </g>
     <g>
      <g>
       <g>
        <path d="m771.98291,386.782562h-17.152832l-0.625916,-0.324219c-15.241516,-7.934479 -25.885864,-35.518341 -25.885864,-67.085022c0,-38.968018 15.413452,-69.488037 35.089661,-69.488037c19.679138,0 35.090332,30.52002 35.090332,69.488037c0,31.561615 -10.643555,59.150543 -25.886536,67.085022l-0.628845,0.324219l0,0zm-15.708618,-5.788208h14.261536c12.888489,-7.336792 22.17572,-33.03476 22.17572,-61.621063c0,-34.528931 -13.421631,-63.702728 -29.304321,-63.702728c-15.883423,0 -29.30365,29.174561 -29.30365,63.702728c0.000061,28.592102 9.287292,54.289368 22.170715,61.621063l0,0z" fill="#1E1D1D"/>
       </g>
      </g>
     </g>
    </g>
    <g>
     <rect height="78.29" width="14.898" fill="#FFFFFF" transform="matrix(0.629593, -0.360203, 0.360203, 0.629593, -1.30643, 225.566)" y="566.655162" x="833.906099"/>
     <path d="m755.11731,334.556793l-30.616455,-53.519714l13.608032,-7.785767l30.617188,53.521912l-13.608765,7.783569l0,0zm-23.969482,-51.710724l25.778503,45.063049l5.152771,-2.947083l-25.779175,-45.062317l-5.1521,2.94635l0,0z" fill="#1E1D1D"/>
    </g>
    <g>
     <g>
      <polygon points="793.6537780761719,295.1709899902344 785.5662841796875,288.00390625 734.3683471679688,345.7698059082031 739.8685913085938,350.646240234375 744.4882507324219,350.646240234375 " fill="#FFFFFF"/>
      <path d="m745.584229,353.081207h-6.639038l-8.014221,-7.103241l54.428589,-61.412872l11.731628,10.396973l-51.506958,58.119141l0,0zm-4.791565,-4.871399h2.598877l46.824158,-52.83139l-4.441223,-3.937134l-47.967285,54.122528l2.985474,2.645996l0,0z" fill="#1E1D1D"/>
     </g>
    </g>
    <g>
     <g>
      <path d="m827.808472,258.989014c0,23.211487 -28.827759,42.024567 -64.401245,42.024567c-35.565491,0 -64.398315,-18.81308 -64.398315,-42.024567s28.832825,-42.026779 64.398315,-42.026779c35.573486,-0.000748 64.401245,18.815231 64.401245,42.026779z" fill="#FFFFFF"/>
     </g>
     <g>
      <path d="m763.407227,303.905518c-37.104614,0 -67.291016,-20.150635 -67.291016,-44.917267c0,-24.768799 30.186401,-44.919403 67.291016,-44.919403c37.104614,0 67.29248,20.149872 67.29248,44.919403c0,24.766632 -30.187866,44.917267 -67.29248,44.917267l0,0zm0,-84.050659c-33.912415,0 -61.505737,17.556091 -61.505737,39.134155c0,21.576569 27.593323,39.129028 61.505737,39.129028c33.914612,0 61.505737,-17.55246 61.505737,-39.129028c0,-21.578094 -27.591125,-39.134155 -61.505737,-39.134155l0,0z" fill="#1E1D1D"/>
     </g>
    </g>
    <g>
     <g>
      <path d="m781.177979,386.765137h-34.70813c-1.598633,0 -2.894043,-1.294708 -2.894043,-2.891937c0,-1.5979 1.29541,-2.892639 2.894043,-2.892639h34.70813c1.599365,0 2.893433,1.294739 2.893433,2.892639c-0.000061,1.597229 -1.294067,2.891937 -2.893433,2.891937l0,0z" fill="#1E1D1D"/>
     </g>
    </g>
    <g>
     <g>
      <g>
       <path d="m748.576965,250.783997c0,4.154694 -3.371399,7.526062 -7.523926,7.526062c-4.161987,0 -7.530457,-3.371368 -7.530457,-7.526062c0,-4.159851 3.368469,-7.52829 7.530457,-7.52829c4.151855,0 7.523926,3.368439 7.523926,7.52829z" fill="#FF4500"/>
      </g>
      <g>
       <path d="m741.053101,261.20343c-5.746887,0 -10.423828,-4.674072 -10.423828,-10.419434c0,-5.747589 4.676941,-10.422394 10.423828,-10.422394c5.746094,0 10.416504,4.674805 10.416504,10.422394c0,5.745361 -4.67041,10.419434 -10.416504,10.419434l0,0z" fill="#FF4717"/>
      </g>
     </g>
     <g>
      <g>
       <path d="m793.948242,250.783997c0,4.154694 -3.369141,7.526062 -7.52533,7.526062c-4.151794,0 -7.526123,-3.371368 -7.526123,-7.526062c0,-4.159851 3.374329,-7.52829 7.526123,-7.52829c4.156921,0 7.52533,3.368439 7.52533,7.52829z" fill="#FF4500"/>
      </g>
      <g>
       <path d="m786.422913,261.20343c-5.74469,0 -10.418762,-4.674072 -10.418762,-10.419434c0,-5.747589 4.674072,-10.422394 10.418762,-10.422394s10.416565,4.674805 10.416565,10.422394c0.000732,5.745361 -4.671875,10.419434 -10.416565,10.419434l0,0z" fill="#FF4717"/>
      </g>
     </g>
     <g>
      <g>
       <path d="m763.63501,287.917633c-11.213745,0 -19.132935,-2.464722 -24.207397,-7.538452c-1.130859,-1.130768 -1.130859,-2.960815 -0.00293,-4.093079c1.130798,-1.129333 2.963013,-1.132965 4.09375,-0.001434c3.934265,3.93277 10.513062,5.843323 20.116577,5.843323c1.598633,0 2.893311,1.296143 2.893311,2.894073c0,1.600098 -1.294678,2.895569 -2.893311,2.895569l0,0z" fill="#1E1D1D"/>
      </g>
     </g>
     <g>
      <g>
       <path d="m763.797485,287.917633c-1.5979,0 -2.893433,-1.295471 -2.893433,-2.894836c0,-1.5979 1.295532,-2.894104 2.893433,-2.894104c9.603455,0 16.183716,-1.910522 20.12085,-5.843323c1.127869,-1.132233 2.960815,-1.127899 4.091614,0.001465c1.130798,1.132233 1.129333,2.96228 -0.00293,4.093079c-5.075867,5.072998 -12.994385,7.53772 -24.209534,7.53772l0,0z" fill="#1E1D1D"/>
      </g>
     </g>
    </g>
    <g>
     <g>
      <path d="m763.82428,347.837708c-11.022217,0 -21.406128,-1.047363 -30.533752,-2.89624c0.578003,3.156677 1.26709,6.199432 2.061401,9.106628c8.874451,1.716125 18.894287,2.686615 29.502319,2.686615c9.409058,0 18.354004,-0.763763 26.45166,-2.133942c0.842773,-3.021027 1.575378,-6.189301 2.184692,-9.485931c-8.915894,1.737885 -18.990784,2.72287 -29.666321,2.72287z" fill="#1E1D1D"/>
     </g>
    </g>
    <g>
     <g>
      <path d="m766.401428,348.743713c-0.385193,-0.377197 -0.754333,-0.760193 -1.129333,-1.140259l-6.216919,6.349609c0.557129,0.571564 1.117798,1.144592 1.696594,1.708893c5.243469,5.133209 10.761841,9.470001 16.233826,12.906647c2.582153,-1.698029 5.207886,-3.559937 7.852417,-5.585083c-6.185669,-3.620911 -12.488098,-8.416107 -18.436584,-14.239807z" fill="#1E1D1D"/>
     </g>
    </g>
    <g>
     <g>
      <path d="m756.515076,351.769775c0.257507,-0.372101 0.49762,-0.749237 0.746399,-1.123535l7.31427,5.044739c-0.366272,0.562866 -0.735535,1.126465 -1.119934,1.685699c-1.068359,1.549286 -2.182495,3.024628 -3.326416,4.441956l-7.950439,-4.384674c1.504395,-1.779266 2.957275,-3.665161 4.336121,-5.664185z" fill="#1E1D1D"/>
     </g>
     <g>
      <path d="m743.234863,366.227203c0.835571,-0.673126 1.664673,-1.390472 2.48645,-2.128143l8.326172,4.333191c-0.724609,0.687592 -1.453613,1.363617 -2.191284,2.004089c-2.799805,-1.26062 -5.680786,-2.664154 -8.621338,-4.209137z" fill="#1E1D1D"/>
     </g>
     <g>
      <path d="m752.179749,357.43396l7.950378,4.384674c-1.940247,2.400848 -3.979126,4.611664 -6.081909,6.613617l-8.326172,-4.333191c2.226807,-1.997559 4.393372,-4.222168 6.457703,-6.6651z" fill="#B0272D"/>
     </g>
    </g>
    <g>
     <circle r="6.996094" cy="352.189762" cx="763.408681" fill="#1E1D1D"/>
     <path d="m763.408691,360.40567c-4.530518,0 -8.21521,-3.684723 -8.21521,-8.215912c0,-4.528992 3.684692,-8.212982 8.21521,-8.212982c4.529663,0 8.214478,3.68399 8.214478,8.212982c0,4.531189 -3.684814,8.215912 -8.214478,8.215912l0,0zm0,-13.993958c-3.187134,0 -5.779541,2.592346 -5.779541,5.778046c0,3.187134 2.592407,5.77948 5.779541,5.77948s5.778748,-2.592346 5.778748,-5.77948c0,-3.185699 -2.591614,-5.778046 -5.778748,-5.778046l0,0z" fill="#FFFFFF"/>
    </g>
   </g>
  </g>
  <line id="svg_3" y2="443.999997" x2="456.999999" y1="413.999997" x1="425.999997" stroke-width="8" stroke="#ffffff" fill="none"/>
  <line transform="rotate(-15.9454, 492, 347)" id="svg_4" y2="360.293946" x2="509.098911" y1="333.70602" x1="474.901088" stroke-width="8" stroke="#ffffff" fill="none"/>
  <rect id="svg_23" height="131" width="436" y="1817" x="1624" stroke-width="42" stroke="#bf0000" fill="none"/>
  <path d="m437,412c1,0 1.0979,-0.824432 3,-2c0.850647,-0.525726 1.61731,-1.076111 2,-2c1.082397,-2.613129 3.026764,-2.770233 4,-3c2.176239,-0.513733 3,-1 3,-2c0,-1 0.474274,-2.149353 1,-3c1.175568,-1.9021 2.0979,-3.824432 4,-5c0.850647,-0.525726 2,-2 2,-2c0,-1 0.234619,-2.152252 1,-4c0.541199,-1.306549 1.458801,-2.693451 2,-4c0.38269,-0.923889 1.173096,-2.852722 2,-4c1.307465,-1.813995 2.458801,-3.693451 3,-5c0.38269,-0.923889 2,-2 2,-3c0,-1 1,-2 1,-2c0,-1 1,-2 1,-2c1,0 1,-1 1,-2c0,-1 0.458801,-1.693451 1,-3c0.38269,-0.923889 -0.707092,-2.292908 0,-3c0.707092,-0.707092 0.292908,-1.292908 1,-2c0.707092,-0.707092 1.292908,-1.292908 2,-2c0.707092,-0.707092 0,-2 1,-2c9,0 16.641174,4.550385 21,7c4.694611,2.638336 7.458801,2.693451 8,4c0.38269,0.923889 -0.228851,1.729614 -5,6c-5.26886,4.715851 -11.651398,13.21106 -16,20c-4.639893,7.243713 -8.486267,10.823761 -9,13c-0.229767,0.973236 -0.787994,-0.224731 1,-5c2.827087,-7.550354 8.543579,-13.40213 13,-18c3.479889,-3.590332 6.486267,-5.823761 7,-8c0.229767,-0.973236 2.013611,1.193237 0,9c-2.689972,10.428986 -7,18 -9,22c-1,2 -2.640717,2.948364 -2,-1c3.039246,-18.728668 9.865479,-25.263641 14,-31c2.614899,-3.627991 4.627441,0.303589 1,7c-3.434692,6.340576 -10.771942,18.119537 -14,24c-2.805908,5.11145 -5.458801,9.693451 -6,11c-0.38269,0.923889 -1.138702,0.990326 -1,0c1.009766,-7.209747 7.891388,-18.059937 14,-29c3.930511,-7.039246 8.852722,-13.826904 10,-13c1.813995,1.307465 -2.722351,6.180389 -8,14c-7.60907,11.273956 -13.881897,21.072784 -17,26c-3.85614,6.093445 -7,9 -6,9c1,0 -0.220428,-3.114075 4,-11c3.80423,-7.108276 9.725067,-14.463562 14,-21c3.671722,-5.614136 6.115204,-9.233093 6,-7c-0.671722,13.021088 -10.902679,21.898285 -25,38c-2.794739,3.192108 -5.062042,5.235199 -5,3c0.223694,-8.059143 12.072937,-20.954895 17,-29c6.090637,-9.945038 10.714111,-17.21167 13,-20c1.793182,-2.187347 -0.827179,1.374115 -12,17c-7.583557,10.60611 -16.41156,21.404022 -20,26c-2.610962,3.344086 -3.189117,3.981964 -3,3c3.055115,-15.863983 10.322968,-23.465332 16,-31c8.095886,-10.745056 11.916595,-14.908966 13,-14c9.351318,7.845581 -14.723816,19.344299 -21,27c-4.571747,5.57666 -5.823761,10.513733 -8,10c-2.919739,-0.68927 1.834686,-8.085541 5,-14c3.80423,-7.108276 9,-11 12,-14c2,-2 1.939758,-1.049683 -3,5c-8.099579,9.919525 -13.41156,18.404022 -17,23c-2.610962,3.344086 -5.256653,4.966492 -5,4c2.069336,-7.792175 9.950531,-16.040649 19,-27c4.972931,-6.022461 12.112152,-12.918304 15,-17c2.082458,-2.943359 2.953644,-4.044281 2,-3c-5.266754,5.767273 -10.517792,13.427277 -15,18c-5.467194,5.577637 -8.458801,7.693451 -9,9c-0.38269,0.923889 -0.109253,-2.089386 4,-7c6.82196,-8.152344 11.155334,-11.873901 16,-18c3.101471,-3.921844 4.340424,-4.940277 4,-4c-2.658813,7.34375 -14.126862,15.617157 -20,23c-7.043365,8.853882 -11.917603,10.386871 -13,13c-0.38269,0.923889 -0.893738,-0.592865 4,-7c6.008942,-7.867188 10.517029,-11.531647 15,-17c2.285889,-2.78833 3,-5 2,-4c-4,4 -10.44043,8.589752 -16,15c-3.276001,3.777283 -6,6 -5,7c3,3 8,-11 14,-17c3,-3 9,-5 7,-7c-1,-1 -5.21167,3.714111 -8,6c-1.093658,0.896606 0,0 3,-3c5,-5 9.835205,-7.773743 12,-13c0.38269,-0.923889 -1.06601,0.877655 -3,2c-6.236969,3.619446 -9,7 -11,8c0,0 5,-6 8,-9c2,-2 3.61731,-4.923889 4,-4c0.541199,1.306549 -4.746735,5.371338 -9,8c-1.9021,1.175568 -3.316223,2.948669 -3,2c1.581146,-4.743408 6,-8 10,-12c2,-2 0.925629,-1.117065 -7,4c-3.029083,1.955688 -3.229767,2.973236 -3,2c0.513733,-2.176239 2,-2 3,0c1,2 3,4 4,5l1,2l1,1" id="svg_25" stroke-width="5" stroke="#bf0000" fill="none"/>
  <path d="m494.186646,367.891174c0,1.104431 0.505859,3.670776 -1.054199,5.522156c-2.515564,2.985291 -3.331543,3.299042 -3.162689,2.208862c0.533997,-3.447388 4.989899,-9.092468 10.542236,-15.462036c1.005341,-1.15332 1.557922,1.524933 -1.05423,4.417725c-3.622375,4.011597 -4.216888,2.208862 -4.216888,0c0,-1.104431 -0.865601,4.08783 -4.216888,2.208862c-0.929504,-0.521118 2.966583,-4.078125 1.05423,-5.522156c-1.209503,-0.913239 -2.417236,2.989807 -3.162689,2.208862c-0.745422,-0.780914 2.486053,-4.188904 2.108459,-6.626587c-0.2388,-1.541748 -4.947937,5.015442 -6.325348,4.417725c-0.973969,-0.422638 0,-3.313293 0,-6.626587c0,-1.104431 -0.308777,-0.780914 -1.054199,0c-2.236359,2.342834 -2.108459,4.417725 -2.108459,2.208862c0,-1.104431 0.443085,0.173248 -2.108459,6.626587c-0.9021,2.281616 -2.108429,0 -2.108429,-6.626587c0,-1.104431 -1.13446,-2.6315 -2.108459,-2.208862c-2.754822,1.195435 -4.412964,4.078156 -6.325317,5.522156c-1.209503,0.913269 -1.05423,0 -1.05423,-2.208862c0,-1.104431 0,-2.208862 0,-3.313293c0,0 2.108429,-2.208862 1.05423,-2.208862c-2.108459,0 0.156067,4.669952 -1.05423,7.731018c-0.570557,1.442993 -2.592133,4.079163 -3.162659,5.522156c-0.403442,1.020386 -0.730103,2.414307 -2.108459,4.417725c-0.871735,1.26709 -3.410004,3.481445 -4.216888,5.522156c-0.570557,1.442993 -1.363007,1.885376 -2.108459,1.104431c-0.745422,-0.780914 3.915527,-6.860352 6.325348,-9.93988c1.890411,-2.415771 2.417236,-3.63678 3.162659,-4.417725c0.745453,-0.780914 1.537903,-0.765869 2.108459,-2.208862c0.403442,-1.020355 0.308777,-2.532349 1.05423,-3.313293c0.745422,-0.780914 0.308777,-1.427917 1.054199,-2.208862c0.745453,-0.780914 1.05423,-2.208862 1.05423,-2.208862c0,-1.104431 0,1.104431 0,3.313293c0,3.313293 -2.904694,12.294556 -5.271118,16.566467c-1.907837,3.444153 -4.399353,6.463928 -5.271118,7.731018c-1.378357,2.003448 -1.953156,3.504486 -3.162659,4.417725c-1.912354,1.444031 -2.759216,1.188507 -3.162659,2.208862c-0.570557,1.442993 -3.527649,0.779175 -5.271118,3.313293c-1.378357,2.003448 -3.471466,3.63681 -4.216888,4.417725c-1.490906,1.56192 -1.784302,1.309875 -3.162689,3.313293c-0.871735,1.26709 -0.650757,1.188507 -1.054199,2.208862c-0.570557,1.442993 -3.675323,0.90979 -4.216888,3.313293c-0.242249,1.07489 0,2.208862 -1.05423,2.208862c0,0 -0.308807,1.427948 -1.05423,2.208862c-0.745422,0.780945 -0.308777,1.427948 -1.05423,2.208862c-0.745422,0.780945 -1.37738,1.611145 0,2.208862c0.973999,0.422668 4.019409,3.541718 6.325348,5.522156c2.939514,2.524628 5.271118,3.313293 7.379547,4.417725c0,0 -1.054199,-1.104431 -3.162659,-4.417725c-2.108459,-3.313293 -2.944244,-7.335419 -5.271118,-7.731018c-1.471649,-0.250183 5.292725,13.225006 10.542236,17.670898c1.833221,1.552582 3.037933,2.730011 2.108429,2.208862c-6.702576,-3.757935 -7.379547,-15.462036 -8.433777,-15.462036c-1.05423,0 -1.240021,4.985107 1.05423,4.417725c1.026001,-0.253754 -0.620331,0.446228 3.162659,5.522156c4.587585,6.155518 6.054932,6.8508 5.271118,5.522156c-1.752655,-2.970917 -0.868408,-8.298401 -3.162659,-7.731018c-2.052063,0.507507 2.696899,6.095673 6.325348,8.835449c1.912354,1.444031 2.05957,2.257782 1.054199,1.104431c-5.552307,-6.369537 -5.143097,-12.70816 -8.433777,-12.148743c-1.040619,0.176941 2.104858,6.535492 1.05423,6.626587c-6.390747,0.554108 -2.108459,-19.879761 -2.108459,-24.297485c0,-3.313293 0,-4.417725 0,-3.313293c0,0 -0.745422,-0.323486 0,-1.104431c0.745453,-0.780914 2.108459,0 2.108459,0c0,1.104431 1.05423,1.104431 4.216888,1.104431c2.108459,0 4.729523,-0.194641 5.271118,2.208862c2.179901,9.674011 0.107208,13.738434 1.05423,13.253174c10.797729,-5.532501 12.650665,-17.670898 17.921783,-23.193054c4.216888,-4.417725 7.943848,-5.468994 7.379547,-2.208862c-1.607117,9.284851 -4.618134,21.598816 -10.542206,19.879761c-2.031952,-0.58963 -0.323181,-8.328735 1.054199,-7.731018c0.973999,0.422668 -0.438446,3.049438 -2.108429,6.626587c-1.464691,3.13739 -2.108459,4.417725 -2.108459,3.313293c0,-1.104431 2.030212,-6.674011 6.325348,-14.357605c6.21286,-11.114166 6.428558,-14.163696 8.433777,-15.462036c0.89679,-0.580627 0.883148,-3.134033 4.216888,-6.626587c1.666901,-1.746246 5.271118,-3.313293 4.216888,-3.313293c-1.054199,0 0.080261,0.422668 1.05423,0c1.377411,-0.597717 0.323181,-0.597717 -1.05423,0c-0.973969,0.422668 -2.108429,0 -2.108429,0c-1.05423,0 -1.05423,-1.104431 -1.05423,-2.208862c0,-1.104431 -1.277374,-1.420166 -4.216888,1.104431c-1.152954,0.990265 -1.665222,1.009674 -1.05423,-1.104431c1.101501,-3.811188 3.48584,-6.02887 2.108459,-6.626587c-0.973999,-0.422638 -1.05423,-1.104431 -1.05423,-3.313293c0,-1.104431 0,-1.104431 0,-2.208862c0,-1.104431 -1.05423,-1.104431 -1.05423,-1.104431c-1.05423,-1.104431 -2.417236,-0.323486 -3.162659,-1.104431c-0.745453,-0.780914 -1.05423,-1.104431 -1.05423,-1.104431c0,-1.104431 -0.247345,-1.272583 -1.05423,-3.313293c-0.570526,-1.442993 -2.417236,-0.323486 -3.162659,-1.104431c-0.745422,-0.780914 -1.13446,-1.527069 -2.108459,-1.104431c-1.37738,0.597717 -2.108429,3.313293 -3.162659,4.417725c-1.05423,1.104431 -1.705017,2.292938 -2.108459,3.313293c-0.570526,1.442993 -1.363007,1.427948 -2.108429,2.208862c-1.490906,1.56192 -0.650787,2.292938 -1.05423,3.313293c-0.570526,1.442993 -2.2659,1.628235 -3.162659,2.208862c-2.005249,1.29834 -1.363007,2.532379 -2.108459,3.313293c-1.490875,1.56192 -1.05423,2.208862 -2.108429,3.313293c-1.05423,1.104431 -1.05423,2.208862 0,2.208862c1.054199,0 3.186371,0.699615 6.325317,1.104431c4.314117,0.556396 8.465393,1.669098 12.650696,2.208862c4.314117,0.556396 8.433777,2.208862 10.542206,2.208862c3.162689,0 7.54007,0.845337 9.488007,0c1.377411,-0.597717 2.592133,-0.765869 3.162689,-2.208862c0.403442,-1.020355 0.308777,-1.427917 1.05423,-2.208862c0.745422,-0.780914 1.363007,-0.323486 2.108429,-1.104431c0.745422,-0.780914 0,-2.208862 1.05423,-3.313293c0,0 1.05423,-1.104431 1.05423,-2.208862c0,-1.104431 1.054199,-1.104431 1.054199,-2.208862c0,0 1.05423,-1.104431 2.108459,-2.208862l0,-1.104431" id="svg_27" stroke-width="5" stroke="#bf0000" fill="none"/>
  <text transform="matrix(5.72646, 0, 0, 5.72646, -1513.91, -1825.85)" xml:space="preserve" text-anchor="middle" font-family="Sans-serif" font-size="24" id="svg_32" y="376.07997" x="319.115867" stroke-width="0" stroke="#000000" fill="#000000">r/bjj</text>
  <path d="m116.513145,260.705963c2.159279,0 16.114449,0.537201 21.592781,1.07962c1.074387,0.106384 1.079651,0 2.159271,0c1.079636,0 2.159286,0 3.238922,0c0,0 1.079651,0 2.159271,0c1.079651,0 1.079651,0 2.159271,0c1.079666,0 2.159286,0 3.238922,0c0,0 1.395859,0.763367 2.159271,0c0.763458,-0.763397 0,-2.159302 0,-3.238922c0,0 0,-1.079651 0,-3.238953c0,0 0,-1.07959 0,-2.159241c0,-1.07962 0,-2.159271 0,-3.238861c0,-1.079712 -0.763412,-1.395935 0,-2.159302c0.763458,-0.763458 1.079651,-1.079651 1.079651,-2.159302c0,-1.079681 0,-1.079681 0,-2.159271c0,-1.079651 0,-1.079651 0,-2.159302c0,-1.07959 0,-2.159302 0,-2.159302c0,-2.159332 0,-2.159332 0,-3.238922c0,-1.07959 0,-2.159241 0,-2.159241c0,-1.079651 0,-2.159241 0,-2.159241c0,-1.07962 0,-2.159302 0,-2.159302c0,-1.07962 0,-2.159271 0,-3.238922c0,-1.07962 1.079636,-1.07962 4.318558,-1.07962c2.159286,0 5.398224,0 7.557495,0c1.079636,0 3.238907,0 4.318542,0c1.079651,0 2.159271,0 2.159271,0c2.159286,0 3.238907,0 4.318573,0c0,0 0.82634,-2.32373 0,-4.318604c-1.168625,-2.821228 -2.475525,-3.555115 -3.238907,-4.318542c-0.763443,-0.763397 -1.91124,-2.188171 -2.159286,-3.238892c-0.554672,-2.349548 -2.159286,-3.238953 -3.238937,-4.318542c0,0 -0.748672,-1.575012 -2.159256,-2.159302c-0.997467,-0.413177 -2.475525,-1.395874 -3.238922,-2.159302c-0.763443,-0.763382 -0.316223,-1.395859 -1.079636,-2.159286c-0.763428,-0.763382 -1.575012,-0.748672 -2.159302,-2.159256c-0.413147,-0.997437 -0.316193,-1.395844 -1.079636,-2.159271c-0.763428,-0.763443 -1.079651,-1.079666 -1.079651,-1.079666c-1.07962,0 -1.395844,-0.316208 -2.159271,-1.07962c-1.526825,-1.52684 -1.395828,-2.475494 -2.159286,-3.238907c-0.763412,-0.763428 0,-2.159286 -1.07962,-3.238937c-1.079651,-1.07962 -2.159286,-2.159271 -2.159286,-3.238907c0,0 -0.316223,-1.395874 -1.07962,-2.159271c-0.763443,-0.763412 -0.666489,-1.161819 -1.079666,-2.159286c-0.58429,-1.410629 -1.395874,-1.395874 -2.159271,-2.159286c-0.763412,-0.763397 0.763397,-2.475494 0,-3.238907c-0.763412,-0.763428 -1.395844,-0.316208 -2.159271,-1.079651c-0.763428,-0.763397 -1.395859,-0.316208 -2.159286,-1.07962c-0.763412,-0.763443 -1.395859,-1.395874 -2.159256,-2.159286c-0.763428,-0.763428 -1.079651,-1.07962 -2.159271,-1.07962c-1.079666,0 -1.574997,-0.748672 -2.159302,-2.159286c-0.413162,-0.997467 -0.831589,-1.050797 -1.079651,0c-0.554657,2.349564 -1.395844,1.395844 -2.159241,2.159286c-1.526871,1.52681 -0.18692,3.079926 -1.079651,4.318527c-1.411591,1.958481 -1.079636,3.238937 -2.159286,5.398224c-1.079628,2.159271 -2.346169,3.079926 -3.238907,4.318527c-1.411583,1.958481 -3.190514,2.752182 -4.318558,6.477844c-0.312881,1.033325 -1.266525,2.00029 -2.159286,3.238907c-1.411583,1.958466 -2.360085,2.906998 -4.318558,4.318558c-1.238663,0.892761 -2.382553,0.87738 -4.318558,3.238907c-2.467926,3.010391 -2.320526,3.750961 -3.238937,4.318588c-2.053574,1.269196 -2.320496,1.591675 -3.238907,2.159302c-2.053574,1.269165 -1.395844,2.475464 -2.159279,3.238892c-0.763405,0.763397 -1.395844,1.395874 -2.159279,2.159271c-0.763412,0.763397 -1.395844,0.316223 -2.159256,1.079651c-0.763435,0.763397 -1.079651,2.159271 -1.079651,3.238922c0,1.07962 0.028885,0.831573 1.079651,1.07962c2.349564,0.554657 3.238907,1.07962 5.398186,1.07962c1.079628,0 2.159279,1.079651 3.238907,1.079651c1.079628,0 1.395874,0.316284 2.159286,1.079651c0.763428,0.763397 1.07962,0 3.238907,0c1.079651,0 2.475494,-0.763367 3.23893,0c0.763435,0.763397 2.159279,1.07959 2.159279,2.159302c0,2.159271 0,5.398224 0,7.557434c0,2.159302 0,4.318481 0,5.398193c0,2.159332 0,3.238922 0,5.398224c0,2.159271 0,2.159271 0,3.238922c0,1.079651 0,2.159241 0,2.159241c0,1.079712 0,2.159302 0,3.238953c0,0 -0.763435,1.395813 0,2.159271c0.763435,0.763367 2.159279,0 4.318565,0c1.079651,0 2.159279,0 3.23893,0c1.079628,0 2.173195,-0.172974 3.238907,0c3.370033,0.546814 7.557457,1.07959 10.796379,1.07959c3.238907,0 4.318558,0 5.398193,0c0,0 0.748657,1.574982 2.159271,2.159302c0.997467,0.413177 1.410645,0.495331 0,1.079651c-0.997437,0.413177 -2.159271,0 -3.238907,0c-1.079651,0 -3.238907,1.07962 -4.318558,1.07962c-2.159286,0 -3.238922,1.079681 -6.477814,1.079681c-1.079651,0 -2.159286,0 -3.238937,0c-2.159279,0 -2.159279,0 -3.238907,0c-1.079628,0 -2.159279,0 -2.159279,0c-1.079628,0 -1.079628,-1.079681 -2.159279,-1.079681c-1.079628,0 -1.395851,0.763428 -2.159286,0c-0.763428,-0.763336 0,-4.318573 0,-7.557434c0,-2.159241 0.525017,-5.207886 1.079659,-7.557526c0.744148,-3.152222 0.524986,-5.207886 1.079628,-7.557526c0.992172,-4.202942 0.537971,-6.410736 1.079651,-12.955627c0.178085,-2.151886 0,-5.398132 0,-5.398132c0,3.238892 0.537949,7.490479 1.079628,14.035278c0.623344,7.531738 0,11.876007 0,15.11499c0,2.159302 0,3.238892 0,4.318542c0,2.159271 -0.212799,1.069092 0,-1.079651c0.542442,-5.478302 3.465157,-11.815002 5.398186,-19.433472c2.447983,-9.648071 3.774673,-13.935791 4.318558,-18.353882c0.263824,-2.143127 1.07962,-2.159302 1.07962,-1.079651c0,3.238922 0,12.955688 0,24.831604c0,5.398285 -1.07962,11.876099 -1.07962,15.115051c0,1.07962 0,2.159271 0,1.07962c0,-8.637146 0.20607,-12.906769 2.159271,-21.592743c1.207764,-5.371033 2.68425,-7.747803 3.238922,-5.398224c1.736359,7.355286 -1.182693,17.249786 -2.159286,21.592804c-1.207748,5.370941 -1.139328,7.555817 -1.079636,6.477814c0.540634,-9.761597 5.882751,-19.243744 8.637115,-26.990967c2.633011,-7.405762 3.763885,-9.907074 4.318542,-7.557495c0.744156,3.152252 -0.53714,8.556976 -1.07962,14.035309c-0.425537,4.297546 0,6.477875 0,5.398163c0,-5.398163 0,-10.796326 0,-15.11496c0,-3.238892 1.556442,-2.033783 0,7.557556c-0.546875,3.369995 -1.079651,5.398071 -1.079651,4.318481c0,-5.398102 0,-9.716705 0,-7.557404c0,3.238922 0,10.796326 0,15.114929c0,3.238922 0,5.398163 0,4.318573c0,-1.079651 -0.128098,-6.505096 1.079651,-11.876099c0.976593,-4.342957 2.159286,-6.477783 2.159286,-5.398102c0,4.318512 1.269928,9.191711 -1.079666,8.637024c-1.050735,-0.248016 0,-3.238922 0,-7.557404c0,-2.159302 1.079666,-6.477844 0,-6.477844c-1.07962,0 0,8.637085 0,14.035248c0,4.318604 -2.159271,8.637177 0,8.637177c1.079666,0 0,-3.238983 0,-7.557465c0,-3.239044 0.864731,-2.0896 0,3.238892c-0.546875,3.369995 -1.828293,8.141754 -3.238892,7.557465c-1.994904,-0.826385 0,-9.716766 0,-11.876068c0,-4.318512 0.496094,-5.340393 0,-3.238922c-1.109314,4.699219 -2.081619,9.296875 -4.318573,11.876099c-1.581757,1.82373 2.159286,-5.398224 -2.159271,-5.398224c-2.159286,0 -2.159286,5.398224 -4.318573,9.716766c-1.07962,2.159271 -2.159241,3.238861 -2.159241,1.07962c0,-8.637146 0.128387,-15.347473 2.159241,-21.592743c0.746597,-2.295868 0.264191,0.142487 -2.159241,4.318481c-1.953857,3.366882 -4.318565,5.398224 -3.238937,5.398224c2.159286,0 0,-4.318634 0,-7.557465c0,-2.159241 0.319168,-4.302856 0,-1.079651c-0.542473,5.478363 -4.318535,10.796417 -2.159279,10.796417c1.079651,0 -0.892197,-11.076599 3.23893,-22.672455c3.568451,-10.016541 4.007614,-22.692245 9.716751,-21.592773c2.1203,0.40834 -5.398224,6.477844 -8.637115,9.716797c-2.159286,2.159241 -2.159286,3.238892 -2.159286,2.159241c0,-2.159241 -0.164932,-5.44281 1.079651,-9.716751c0.954514,-3.277969 2.467911,-1.930756 0,1.07962c-3.872009,4.723099 -5.503891,8.826706 -7.557465,7.55748c-0.918411,-0.567596 1.079628,-6.477829 3.238907,-10.796387c2.159279,-4.318558 7.557465,-7.557465 6.477844,-8.6371c-6.477844,-6.477829 -9.398766,10.090515 -11.87603,11.876007c-1.958473,1.411606 -2.472191,2.112961 -2.159309,1.079651c1.128052,-3.725662 6.851601,-8.319107 8.637123,-10.796371c1.41156,-1.958466 2.117043,-4.359207 1.079651,-3.238937c-6.763123,7.303314 -10.707436,10.134445 -11.876053,12.955658c-0.413147,0.997498 0,0 4.318588,-6.477814c2.159279,-3.238907 5.503868,-7.747025 7.557465,-6.477844c0.918388,0.567612 -2.948647,5.704987 -8.637123,10.796402c-5.151108,4.610474 -9.123512,6.964233 -11.876053,9.716736c-2.75251,2.752563 -3.238907,5.398224 -4.318535,6.477844c-1.079651,1.079651 -2.572449,2.077087 -2.159279,1.079651c1.168594,-2.821259 8.685493,-3.831818 7.557472,-7.557495c-0.312859,-1.033295 -3.238914,4.318573 -6.477844,7.557495c-2.159279,2.159271 -1.079628,3.238892 1.079651,1.079651c2.159279,-2.159302 3.267792,-4.070496 4.318535,-4.318573c2.349586,-0.554657 -0.495331,3.98761 -1.079628,5.398193c-0.41317,0.997467 1.079628,-2.159271 4.318565,-5.398193c2.159279,-2.159271 4.731728,-3.156738 4.318558,-2.159271c-1.168594,2.821228 -2.72686,4.157318 -2.159279,3.238922c1.269188,-2.053589 2.264961,-3.049347 4.318558,-4.318573c0.918388,-0.567596 0.892761,0.920654 0,2.159302c-1.411583,1.958435 -2.159279,2.159271 -1.079651,2.159271c1.079651,0 1.969002,-4.873199 4.318588,-4.318573c1.050743,0.248047 -0.525017,3.048645 -1.079659,5.398193c-0.496101,2.101501 -1.031685,-1.901733 4.318565,-7.557434c3.709694,-3.92157 10.595558,-7.225555 8.637123,-8.637146c-1.238663,-0.892761 -1.495422,2.560928 -4.318565,6.477844c-1.785522,2.477234 -3.238907,4.318542 -2.159279,3.238892c2.159279,-2.159271 3.687286,-5.194382 4.318558,-4.318542c1.996262,2.769653 -5.398186,10.796387 -4.318558,10.796387c1.079628,0 2.605827,-3.914001 6.477844,-8.637115c2.467896,-3.010391 5.548187,-5.648392 5.398193,-3.238922c-0.241898,3.885193 -4.879196,8.160156 -7.55748,11.876038c-1.411575,1.958435 -2.655403,4.260834 -2.159279,2.159302c0.554642,-2.349579 4.541832,-4.116302 6.477806,-6.477844c2.467926,-3.010406 3.496521,0.153137 -1.07962,7.557465c-2.046509,3.31134 -4.650482,5.197357 -3.238907,3.238922c1.785507,-2.477264 7.265564,-8.884186 11.876007,-14.035278c3.054855,-3.413116 5.711075,-5.351898 5.398209,-4.318604c-1.128052,3.725647 -4.009918,6.706421 -6.477844,9.716766c-0.967987,1.180756 -0.997467,2.572449 0,2.159271c1.410645,-0.58429 4.229599,-3.656586 5.398193,-6.477844c0.413177,-0.997437 3.098846,2.315887 -2.159271,8.637146c-2.489349,2.992676 -5.987335,3.830139 2.159271,-5.398193c4.041885,-4.578583 7.364304,-12.633209 10.796402,-10.796432c0.951889,0.509476 0.627426,2.611526 -1.079651,4.318588c-1.707031,1.707062 -2.572433,2.077087 -2.159286,1.07962c1.168625,-2.821243 3.634079,-4.073837 4.318558,-3.238922c3.490204,4.257324 -1.533127,9.483337 -4.318558,12.955688c-1.51059,1.883148 -2.754532,2.075592 -2.159271,0c2.807907,-9.790588 7.873703,-11.559814 8.637115,-10.796387c1.52684,1.526855 0.164139,4.404602 -2.159286,8.637115c-3.029343,5.518524 -3.486954,6.448914 -3.238907,5.398163c0.554672,-2.349548 2.654648,-3.569855 3.238907,-2.159241c1.239487,2.992371 0.190308,7.03244 -2.159271,6.477844c-1.050751,-0.248108 4.229614,-2.576965 5.398209,-5.398224c0.826309,-1.994904 -1.079651,0 0,0c1.079651,0 2.907928,-5.982483 4.318558,-5.398193c0.997437,0.413177 -0.747711,5.598999 -2.159271,7.557465c-1.785522,2.477234 -2.785019,0.987 -2.159286,-1.079651c1.128052,-3.725647 2.159286,-4.318542 2.159286,-4.318542c0,1.079651 0,3.238922 0,3.238922c1.079651,-1.07962 3.238922,-1.07962 4.318558,-1.07962c1.07962,0 1.07962,0 2.159271,0c1.079636,0 2.139771,0.204163 1.079636,0c-5.709122,-1.099487 -7.557465,-4.318573 -10.796402,-7.557495c-2.159286,-2.159241 -2.907928,-3.734253 -4.318558,-4.318542c-0.997421,-0.413177 -1.395828,-0.316223 -2.159286,-1.079651c-0.763412,-0.763412 0,-1.079651 0,-2.159286c0,-1.079651 -2.070282,-1.497314 -3.238907,-4.318558c-0.413162,-0.997437 -2.654617,-2.907928 -3.238907,-4.318558c-0.413177,-0.997437 -1.574982,-1.828278 -2.159271,-3.238907c-0.413177,-0.997467 0.413162,-2.24147 0,-3.238907c-0.584305,-1.410645 -2.654617,-1.828308 -3.238937,-3.238937c-0.413162,-0.997437 -0.747696,-1.280457 -2.159256,-3.238907c-0.892792,-1.238602 -1.079651,-2.159286 -2.159271,-2.159286c-1.079666,0 -1.079666,-2.159271 -1.079666,-1.07962c0,6.477814 3.238937,12.955658 5.398193,18.353836c2.159286,5.398193 3.238937,5.398193 3.238937,6.477844c0,0 -1.235443,-6.406723 -2.159286,-8.637115c-1.306534,-3.154236 -0.748642,-4.813889 -2.159286,-5.398193c-0.997467,-0.413162 -1.664124,0.758636 -3.238892,4.318558c-1.800873,4.070923 -3.238953,7.55748 -2.159302,7.55748c8.637115,0 0,-15.114944 2.159302,-21.592789c1.07962,-3.238907 1.180756,-5.286545 0,-4.318558c-3.010406,2.467926 -3.344635,5.208649 -5.398193,6.477844c-0.918427,0.567581 0,-2.159286 -1.079651,-2.159286c-1.079636,0 0.193176,5.720673 -3.238914,7.55748c-0.95192,0.509445 -1.018311,-1.021576 0,-2.159286c4.610466,-5.151108 7.557457,-8.6371 10.796379,-11.876007c1.079651,-1.079651 1.211746,0.071259 0,2.159256c-3.907684,6.733673 -8.339142,12.116516 -11.87603,16.194595c-2.000763,2.306931 -3.238907,4.318558 -3.238907,3.238907c0,-2.159256 1.647232,-1.998016 1.079651,-1.079636c-1.269218,2.053604 -3.555153,3.55513 -4.318558,4.318573c-0.763435,0.763428 -1.079659,-1.079666 2.159279,-5.398193c3.238907,-4.318558 3.987549,-8.141785 5.398186,-7.557495c0.997444,0.413177 -2.070343,0.417694 -3.238907,3.238937c-0.413193,0.997437 -2.50071,2.103867 -2.159279,1.07962c1.707031,-5.12117 5.398186,-7.557465 6.477814,-8.637085c1.079651,-1.079666 1.24086,-1.591705 2.159286,-2.159286c2.053589,-1.269196 0.316223,-3.555145 1.079651,-4.318558c0.763397,-0.763443 0.973938,0.890091 -1.079651,2.159271c-0.918427,0.567581 -2.159286,3.238907 -3.238914,4.318573c-2.159279,2.159271 -2.159279,3.238907 -3.238907,3.238907c0,0 -0.831604,0.028885 -1.079651,1.07962c-0.554642,2.349594 -2.159279,3.238937 -3.238907,4.318558c-1.079659,1.079651 -1.395874,1.395874 -2.159309,2.159286c-0.763405,0.763412 -1.161812,0.666458 -2.159279,1.079651c-1.410606,0.58429 -2.65461,1.828293 -3.238907,3.238907c-0.41317,0.997437 0.41317,1.161835 0,2.159286c-0.584297,1.410599 -1.395844,2.475494 -2.159279,3.238907c-0.763412,0.763397 -2.159279,1.07962 -2.159279,2.159271c0,1.079636 -1.395851,0.316254 -2.159286,1.079636c-0.763405,0.763428 -0.316216,1.395874 -1.079628,2.159302c-0.763428,0.763428 0.44722,1.712067 -1.079651,3.238892c-0.763405,0.763428 -1.079628,1.079651 -2.159279,2.159302c0,0 -1.079628,0 -1.079628,1.079651c0,1.07962 -0.495331,1.828308 -1.079651,3.238892c-0.41317,0.997437 1.962349,0.606079 11.87603,-3.238892c9.549286,-3.703735 16.748459,-6.03952 18.353889,-8.637146c1.794907,-2.904236 3.156723,-4.985016 2.159286,-5.398193c-1.410645,-0.58429 -11.113831,11.300781 -14.035339,18.353882c-0.413139,0.997437 -0.617287,-0.457062 4.318588,-6.477844c5.807968,-7.08461 12.076828,-11.544083 14.035278,-12.955658c2.47728,-1.785522 2.211227,-1.044403 0,2.159271c-5.275635,7.643555 -6.477814,8.637146 -6.477814,10.796387c0,1.079651 0.164352,1.905945 2.159286,1.079651c2.821213,-1.168579 4.318527,-2.159302 4.318527,-2.159302c0,1.079651 0,5.398224 0,7.557495c0,1.079651 0,1.079651 1.079666,1.079651c3.238892,0 4.318527,-1.079651 6.477814,-1.079651c1.079651,0 2.159271,1.079651 2.159271,7.557495c0,7.557434 -2.500671,11.820587 -2.159271,10.796326c1.707077,-5.121094 4.634766,-7.241211 5.398209,-6.477783c0.763397,0.763367 0,6.477783 0,8.637085c0,1.07962 -0.845825,-1.228027 1.07962,-9.716705c1.510468,-6.659088 2.159286,-5.398224 2.159286,-4.318634c0,3.238983 -0.172958,7.54364 0,6.477936c0.54689,-3.370056 2.907944,-10.301117 4.318558,-9.716827c0.997437,0.413177 -0.748672,3.823242 -2.159286,3.238892c-0.997437,-0.413147 0,-3.238892 1.079636,-3.238892c1.079651,0 2.159271,0 4.318558,0c1.079651,0 3.55513,0.763367 4.318588,0c1.52681,-1.526855 0.316193,-3.555115 1.07962,-4.318542c0.763412,-0.763397 2.696472,0.080139 3.238907,-5.398193c0.212769,-2.148743 0,-3.238922 0,-1.079651c0,1.079651 -2.159256,8.637146 0,8.637146c1.079651,0 0,-2.159302 1.079651,-2.159302c1.079636,0 3.210022,0.831604 2.159286,1.079651c-2.349594,0.554657 -4.318558,-5.398193 -6.477844,-7.557495c-2.159271,-2.159271 -3.55513,-3.555115 -4.318558,-4.318542c-0.763428,-0.763412 -1.161835,-0.666489 -2.159286,-1.079651c-1.410599,-0.584274 -2.241455,-0.666458 -3.238922,-1.079636c-1.410583,-0.584274 -4.318558,-1.079651 -6.477814,-1.079651c-3.238937,0 -4.634781,0.763428 -5.398209,0c-0.763428,-0.763382 -1.746094,-2.24144 -2.159286,-3.238907c-1.168594,-2.821213 -2.159256,-3.238907 -2.159256,-4.318558c0,-1.079636 -1.395874,-2.475494 -2.159271,-3.238907c-0.763428,-0.763412 -1.666733,2.383423 -4.318573,7.557465c-6.420555,12.527283 -9.230019,19.481934 -12.95565,18.353882c-1.03334,-0.312897 -1.079659,-1.079651 -1.079659,-2.159271c0,-1.079651 -0.316216,-2.922699 -1.079651,-2.159271c-0.763405,0.763367 0,2.159271 0,2.159271c0,-2.159271 0.248077,-4.289673 0,-3.238922c-1.109306,4.699158 -2.907921,8.141754 -4.318558,7.557465c-0.997444,-0.413177 1.495415,-13.3573 4.318558,-17.274246c2.678284,-3.715881 4.813919,-4.649521 5.398216,-3.238907c3.718445,8.977112 0,18.353882 0,24.831665c0,3.238983 0,4.318634 1.079651,4.318634c1.079628,0 0.444778,-3.935028 4.318535,-4.318634c1.519394,-0.150391 1.079651,12.955627 1.079651,15.11496c0,2.159302 0,3.238953 0,2.159302c0,-1.07959 0,-2.159302 0,0c0,3.238892 0.186874,4.4776 1.079636,3.238892c1.41156,-1.958405 4.009918,-6.706299 6.477844,-9.716705c1.936005,-2.361511 2.159271,-1.079651 2.159271,1.07959c0,5.398224 -2.159271,9.716797 0,9.716797c1.07962,0 0.398972,-6.731873 4.318542,-16.19458c1.847702,-4.460754 3.734253,-7.888428 4.318542,-6.477844c2.892136,6.982178 -1.828293,21.097412 -3.238892,20.513153c-1.994904,-0.826324 1.285049,-5.270294 3.238892,-8.637115c1.211731,-2.087982 2.159286,0 2.159286,2.15918c0,1.079712 0,2.159332 0,3.239044c0,1.07959 0,2.159241 0,3.238892c0,3.238922 1.574982,3.569855 2.159286,2.159271c0.826309,-1.994904 0.524979,-3.429169 1.07962,-1.079681c0.744186,3.152283 -1.558472,7.968445 -3.238907,14.035339c-0.576385,2.080902 -1.925446,0.931213 0,-7.557465c2.265686,-9.988617 3.527115,-10.757233 3.238907,-9.716766c-1.680405,6.066895 -3.55513,5.714417 -4.318527,6.477875c-0.763443,0.763367 0,2.159302 0,3.238892c0,2.159271 -1.079666,5.398224 -1.079666,6.477814c0,1.079651 -1.615387,1.17923 -2.159271,-3.238892c-0.263824,-2.143097 0,-3.238922 -1.07962,-3.238922c-1.079651,0 -1.827362,1.280487 -3.238937,3.238922c-0.892746,1.238617 -2.68425,2.349548 -3.238907,0c-1.240265,-5.253784 0,-7.557465 -1.07962,-7.557465c-1.079666,0 -4.318573,4.318542 -6.477844,6.477814c-1.079636,1.079651 -2.159286,1.079651 -2.159286,-1.07962c0,-2.159241 -1.240898,-3.806519 -2.159279,-3.238953c-2.053604,1.269257 -1.079628,1.079712 -1.079628,-2.159241c0,-1.079651 0,0 0,2.159241c0,1.079712 0.419075,-1.91861 6.477844,-12.955688c4.64682,-8.464966 6.798462,-15.777649 9.716721,-18.353821c1.80986,-1.597656 2.159286,-2.159271 2.159286,-4.318542c0,-2.159302 -0.447205,-4.950989 1.079651,-6.477844c0.763397,-0.763428 1.07962,1.07962 1.07962,2.159302c0,4.318542 -0.044891,5.397247 0,4.318542c0.540283,-12.989365 3.238937,-21.592804 3.238937,-20.513153c0,4.318527 1.07962,6.477814 1.07962,5.398193c0,-1.079666 -0.997437,-2.825775 0,-3.238937c1.410645,-0.584305 1.848358,18.373734 7.557465,17.274246c1.060165,-0.204163 -1.469147,-14.267578 -4.318558,-21.592789c-0.875168,-2.249939 -2.833588,-0.952164 -1.07962,6.477814c0.784409,3.322815 1.544418,2.015717 0,-2.159271c-3.350311,-9.056763 -5.714447,-10.480164 -6.477844,-9.716751c-0.763412,0.763443 2.985596,3.074554 2.159271,1.079651c-0.58429,-1.410629 -2.906967,-3.439743 -4.318542,-5.398178c-0.892746,-1.238647 -1.079636,-2.159286 -1.079636,-1.079666c0,3.238937 1.185333,7.367935 3.238907,8.637131c0.918411,0.567612 2.018219,-1.218613 1.079651,-4.318558c-1.128052,-3.725693 -4.813889,-5.06723 -5.398209,-6.477844c-0.413162,-0.997437 0,4.318558 0,19.433487c0,7.55748 4.318558,1.079666 0,1.079666c-2.159256,0 1.220901,11.830658 3.238937,18.353851c2.322937,7.508789 2.159271,6.477844 2.159271,-3.238892c0,-9.716782 0,-6.477844 0,-3.238953c0,6.477844 -1.52684,11.428833 0,12.955688c0.763412,0.763397 1.07962,-1.079651 1.07962,-3.238922c0,-1.07962 1.079666,-2.159271 1.079666,-1.07962c0,4.318542 0,7.557465 0,9.716766c0,1.07962 -0.674347,-0.127563 1.07962,-7.557526c0.784409,-3.322784 2.192612,3.467468 -6.477829,9.716827c-1.958466,1.41153 -2.159286,-1.079681 -2.159286,-22.672485c0,-12.955673 -1.172287,-15.740692 -3.238907,-15.114929c-3.725693,1.128021 -4.736252,6.566772 -7.557465,5.398193c-0.997467,-0.413177 -0.744186,-2.245911 0,-5.398193c0.554657,-2.349564 3.312714,-3.159668 2.159271,-2.159286c-4.078079,3.536896 -4.318558,3.238907 -5.398186,3.238907c-1.079651,0 -1.079651,3.238907 -3.238907,4.318573l0,1.07962" id="svg_34" stroke-width="5" stroke="#ff7f00" fill="none"/>
  <path d="m505,361c-1,0 -2,0 -6,0c-1,0 -1.152252,0.765381 -3,0c-1.306549,-0.541199 -3,-1 -4,-1c-1,0 -1.292908,-0.292908 -2,-1c-1.414215,-1.414215 -3,0 -3,0c-3,0 -2.585785,-1.585785 -4,-3c-1.414215,-1.414215 -2.292908,-0.292908 -3,-1c-0.707092,-0.707092 -1,-2 -1,-2c0,0 -1.076111,-0.61731 -2,-1c-1.306549,-0.541199 -2,-1 -2,-2c0,-1 0.878571,-0.506531 4,0c0.987091,0.160187 2,0 2,0c1,1 2.026764,1.770233 3,2c2.176239,0.513733 3.292908,1.292908 4,2c0.707092,0.707092 1.693451,1.458801 3,2c0.923889,0.38269 1,1 2,1c0,0 1.292908,0.292908 2,1c1.414215,1.414215 2.823761,0.486267 5,1c0.973236,0.229767 2,0 3,0c1,0 2.852722,1.173096 4,2c1.813995,1.307465 3.292908,0.292908 4,1c0.707092,0.707092 -1,1 -3,1c-1,0 -2.076111,0.38269 -3,0c-1.306549,-0.541199 -0.292908,-1.292908 -1,-2c-0.707092,-0.707092 -2.292908,0.707092 -3,0c-0.707092,-0.707092 -1.292908,-0.292908 -2,-1c-0.707092,-0.707092 -2.458801,-0.693451 -3,-2c-0.38269,-0.923889 -2,-1 -2,-2c0,0 1.585785,-1.414215 3,0c0.707092,0.707092 2,1 3,1c0,0 2.007507,0.877808 3,1c4.092224,0.503784 4.186005,1.692535 6,3c1.147278,0.826904 0,1 -1,1c-2,0 -4.076111,0.38269 -5,0c-1.306549,-0.541199 -2.152252,-0.234619 -4,-1c-1.306549,-0.541199 -1.292908,-1.292908 -2,-2c-1.414215,-1.414215 -3,-1 -4,-1c-1,0 -1.292908,0.707092 -2,0c-0.707092,-0.707092 -0.292908,-1.292908 -1,-2c-1.414215,-1.414215 -2.076111,-0.61731 -3,-1c-1.306549,-0.541199 -2.292908,-0.292908 -3,-1c-0.707092,-0.707092 -2,-1 -3,-1c-1,0 -1.076111,0.38269 -2,0c-1.306549,-0.541199 -2.458801,-0.693451 -3,-2c-0.38269,-0.923889 -1,-1 -2,-1l0,-1" id="svg_35" stroke-width="5" stroke="#bf0000" fill="none"/>
  <path d="m471,422c0,1 -1.298706,1.821075 -3,5c-0.471863,0.881683 -0.540497,1.053497 -1,3c-0.513733,2.176239 -2,3 -2,5c0,1 -0.662506,-1.309998 1,-4c2.230499,-3.609009 5.323669,-6.520172 7,-8c2.703003,-2.386169 2.813995,-3.307465 1,-2c-4.589081,3.307617 -7.519287,8.558197 -10,12c-2.614899,3.627991 -4.917603,5.386871 -6,8c-0.38269,0.923889 -0.122192,-0.007507 0,-1c0.503784,-4.092224 3,-7 5,-10c2,-3 3.292908,-3.292908 4,-4c0.707092,-0.707092 0.5495,0.4505 -2,3c-2.5495,2.5495 -3.693451,7.541199 -5,7c-0.923889,-0.38269 0.113495,-3.920288 5,-11c2.048096,-2.967377 2.813995,-4.307465 1,-3c-2.294525,1.653809 -4,5 -6,7c-1,1 -3,3 -2,3c2,0 1,-7 3,-9c1,-1 1.614899,-0.627991 -1,3c-1.653809,2.294525 -2.292908,3.707092 -3,3c-0.707092,-0.707092 0,-4 2,-6c2,-2 3.122345,-3.93399 2,-2c-1.809723,3.118469 -5.714111,6.21167 -8,9c-1.793182,2.187347 -2.66803,0.77063 -1,-3c1.458649,-3.297333 6.175568,-4.0979 5,-6c-0.525726,-0.850647 -2.21167,0.714111 -5,3c-1.093658,0.896606 -1.38269,-0.076111 -1,-1c1.082397,-2.613129 4,-4 3,-3c-1,1 -2.292908,2.707092 -3,2c-0.707092,-0.707092 0.519287,-1.558197 3,-5c1.307465,-1.813995 1.881683,-4.471863 1,-4c-3.178925,1.701294 -4,4 -5,4c-1,0 -1.459503,-0.053497 -1,-2c0.513733,-2.176239 0.89444,-3.447205 0,-3c-4.472137,2.236053 -6.186005,5.692535 -8,7c-1.147278,0.826904 -0.655426,0.257172 3,-5c3.328796,-4.787384 7.855713,-7.934143 7,-10c-1.210144,-2.92157 -8.186005,4.692535 -10,6c-1.147278,0.826904 -1.160187,1.987091 -1,1c0.506531,-3.121429 2.0979,-7.175568 4,-6c1.701294,1.051453 -6.878693,9.707092 -9,9c-2.121307,-0.707092 5.344574,-11.742828 9,-17c3.328796,-4.787384 5.707092,-6.121307 5,-4c-0.707092,2.121307 -4.917603,2.386871 -6,5c-0.38269,0.923889 1,0 3,-2c3,-3 6.310211,-7.718994 9,-11c2.285889,-2.78833 3.471863,-2.881683 3,-2c-1.701294,3.178925 -4.812653,8.206818 -7,10c-2.78833,2.285889 -3.981964,3.810883 -3,4c5.287994,1.018372 4,-9 10,-17c3,-4 7,-7 7,-6c0,2 -1,4 0,4c1,0 0.415894,-3.761078 2,-7c1.389343,-2.840729 2.266937,-4.963715 2,-4c-1.556488,5.619385 -4,7 -4,6c0,-1 -0.662506,-3.309998 1,-6c0.7435,-1.203003 2,-2 2,-3c0,-1 1.458801,-1.693451 2,-3c0.38269,-0.923889 0,0 0,2c0,1 -3.249847,-1.462585 0,-4c0.788208,-0.615417 1,-2 1,-2c0,-2 -0.9021,-3.824432 1,-5c0.850647,-0.525726 2,0 3,0c3,0 10.087158,3.804291 19,13c3.479889,3.590332 5.792816,6.358185 8,6c1.395966,-0.226532 -1.821075,-9.298706 -5,-11c-0.881683,-0.471863 -2,-1 -2,0c0,1 0,3 0,4c0,2 0,0 -2,-2c-2,-2 -3,-2 -3,-1c0,2 -1.458801,2.306549 -2,1c-0.38269,-0.923889 -0.210144,0.07843 1,3c0.855713,2.065857 0.164795,2.226257 -2,-3c-0.38269,-0.923889 -0.502441,-0.074219 0,5c0.197083,1.990265 1.229767,0.973236 1,0c-0.513733,-2.176239 -2.414215,-0.414215 -1,1c0.707092,0.707092 2,0 3,0c0,0 1,0 2,0c1,0 2.292908,-0.707092 3,0c0.707092,0.707092 0,3 0,3c1,0 2,0 3,0c0,0 1,0 2,0c0,0 2,0 4,0l2,0l0,0" id="svg_26" stroke-width="5" stroke="#bf0000" fill="none"/>
  <path d="m496,358c-1,0 -4,0 -5,0c-1,0 -2.076111,0.38269 -3,0c-1.306549,-0.541199 -1.693451,-2.458801 -3,-3c-0.923889,-0.38269 -1.149353,-0.474274 -2,-1c-1.9021,-1.175568 -0.693451,-2.458801 -2,-3c-0.923889,-0.38269 -1.292908,-1.292908 -2,-2c-0.707092,-0.707092 -1,-1 -2,-1c-1,0 -0.292908,-0.292908 -1,-1c-0.707092,-0.707092 -1,0 -2,0c-1,0 -1,1 -1,1c-1,1 -1,2 -2,3c0,0 -1,2 0,2c1,0 0,-2 0,-3l0,-1l1,-1l0,-1" id="svg_36" stroke-width="5" stroke="#bf0000" fill="none"/>
  <path d="m503,372c0,-1 0,0 0,2c0,1 0,2 0,2c0,1 0,2 0,2c-1,0 -0.692535,2.186005 -2,4c-0.826904,1.147278 -1.585785,0.585785 -3,2c-0.707092,0.707092 -1.458801,1.693451 -2,3c-0.38269,0.923889 -1.458801,1.693451 -2,3c-0.38269,0.923889 -1.486267,0.823761 -2,3c-0.229767,0.973236 -1.486267,0.823761 -2,3c-0.229767,0.973236 -1.61731,2.076111 -2,3c-0.541199,1.306549 -2.229767,0.973236 -2,0c1.541229,-6.528748 4.33197,-9.22937 6,-13c1.458649,-3.297333 4,-5 4,-6c0,0 0,-2 0,-3c0,-2 0,-3 0,-5c0,-1 -0.292908,-1.292908 -1,-2c-0.707092,-0.707092 -2,0 -3,0c-2,0 -8,6 -10,10c-1,2 -2,3 -2,0c0,-3 1.34314,-8.876038 3,-14c1.268555,-3.923096 2.619263,-5.477783 0,-3c-3.632263,3.436066 -6.186005,7.692535 -8,9c-1.147278,0.826904 -1,0 -1,-2l1,0" id="svg_28" stroke-width="5" stroke="#bf0000" fill="none"/>
 </g>
</svg>